<svg width="11" height="13" viewBox="0 0 11 13" fill="none" xmlns="http://www.w3.org/2000/svg">
<path d="M7.38662 2.8215C7.50548 3.17242 7.88012 3.35841 8.22341 3.2369C8.56669 3.1154 8.74863 2.73241 8.62976 2.38148L7.38662 2.8215ZM5.35697 0.67244L5.35435 1.34486H5.35697V0.67244ZM2.54059 3.52696L1.88281 3.52401V3.52696H2.54059ZM1.88281 4.89216C1.88281 5.26352 2.17731 5.56458 2.54059 5.56458C2.90386 5.56458 3.19836 5.26352 3.19836 4.89216H1.88281ZM8.62976 2.38148C8.16066 0.996502 6.87359 2.32572e-05 5.35697 2.32572e-05V1.34486C6.29561 1.34486 7.09523 1.96117 7.38662 2.8215L8.62976 2.38148ZM5.35959 2.86366e-05C3.4479 -0.00774809 1.89119 1.56938 1.88282 3.52401L3.19835 3.5299C3.20354 2.31816 4.16864 1.34003 5.35435 1.34485L5.35959 2.86366e-05ZM1.88281 3.52696V3.53956H3.19836V3.52696H1.88281ZM1.88281 3.53956V4.89216H3.19836V3.53956H1.88281Z" fill="#8982FF"/>
<path d="M7.70367 11.6552H2.9947V13H7.70367V11.6552ZM2.9947 11.6552C2.0676 11.6552 1.31555 10.8866 1.31555 9.93802H0C0 11.6291 1.34082 13 2.9947 13V11.6552ZM1.31555 9.93802V7.23659H0V9.93802H1.31555ZM1.31555 7.23659C1.31555 6.288 2.0676 5.51942 2.9947 5.51942V4.17459C1.34082 4.17459 0 5.54549 0 7.23659H1.31555ZM2.9947 5.51942H7.70367V4.17459H2.9947V5.51942ZM7.70367 5.51942C8.63076 5.51942 9.38282 6.288 9.38282 7.23659H10.6984C10.6984 5.54549 9.35754 4.17459 7.70367 4.17459V5.51942ZM9.38282 7.23659V9.93802H10.6984V7.23659H9.38282ZM9.38282 9.93802C9.38282 10.8866 8.63076 11.6552 7.70367 11.6552V13C9.35754 13 10.6984 11.6291 10.6984 9.93802H9.38282Z" fill="#8982FF"/>
<path d="M5.69836 7.88775C5.69836 7.51638 5.40386 7.21533 5.04059 7.21533C4.67731 7.21533 4.38281 7.51638 4.38281 7.88775H5.69836ZM4.38281 9.2876C4.38281 9.65897 4.67731 9.96002 5.04059 9.96002C5.40386 9.96002 5.69836 9.65897 5.69836 9.2876H4.38281ZM4.38281 7.88775V9.2876H5.69836V7.88775H4.38281Z" fill="#8982FF"/>
</svg>
