<svg width="18" height="17" viewBox="0 0 18 17" fill="none" xmlns="http://www.w3.org/2000/svg">
<path d="M14.9252 8.9675C14.8049 8.83823 14.7386 8.67206 14.7386 8.5C14.7386 8.32794 14.8049 8.16176 14.9252 8.0325L15.8852 7.0125C15.991 6.90105 16.0567 6.76083 16.0728 6.61194C16.089 6.46305 16.0548 6.31315 15.9752 6.18375L14.4752 3.73291C14.3964 3.60366 14.2763 3.5012 14.1323 3.44015C13.9882 3.3791 13.8273 3.36257 13.6727 3.39291L12.2627 3.66208C12.0833 3.69709 11.8965 3.66887 11.7376 3.58275C11.5787 3.49662 11.4587 3.35855 11.4002 3.19458L10.9427 1.89833C10.8923 1.75764 10.7965 1.63545 10.6686 1.54901C10.5408 1.46258 10.3874 1.41628 10.2302 1.41667H7.23017C7.06662 1.4086 6.90477 1.45132 6.76934 1.5383C6.63391 1.62527 6.53235 1.75172 6.48017 1.89833L6.06017 3.19458C6.00167 3.35855 5.88165 3.49662 5.72275 3.58275C5.56386 3.66887 5.37708 3.69709 5.19767 3.66208L3.75017 3.39291C3.60358 3.37335 3.45414 3.3952 3.32068 3.4557C3.18721 3.5162 3.07569 3.61266 3.00017 3.73291L1.50017 6.18375C1.41854 6.31171 1.38183 6.46077 1.3953 6.60961C1.40877 6.75846 1.47173 6.89948 1.57517 7.0125L2.52767 8.0325C2.64791 8.16176 2.71422 8.32794 2.71422 8.5C2.71422 8.67206 2.64791 8.83823 2.52767 8.9675L1.57517 9.9875C1.47173 10.1005 1.40877 10.2415 1.3953 10.3904C1.38183 10.5392 1.41854 10.6883 1.50017 10.8163L3.00017 13.2671C3.07899 13.3963 3.19901 13.4988 3.34311 13.5598C3.48721 13.6209 3.64804 13.6374 3.80267 13.6071L5.21267 13.3379C5.39208 13.3029 5.57886 13.3311 5.73775 13.4172C5.89665 13.5034 6.01667 13.6414 6.07517 13.8054L6.53267 15.1017C6.58485 15.2483 6.68641 15.3747 6.82184 15.4617C6.95727 15.5487 7.11912 15.5914 7.28267 15.5833H10.2827C10.4399 15.5837 10.5933 15.5374 10.7211 15.451C10.849 15.3646 10.9448 15.2424 10.9952 15.1017L11.4527 13.8054C11.5112 13.6414 11.6312 13.5034 11.7901 13.4172C11.949 13.3311 12.1358 13.3029 12.3152 13.3379L13.7252 13.6071C13.8798 13.6374 14.0407 13.6209 14.1848 13.5598C14.3288 13.4988 14.4489 13.3963 14.5277 13.2671L16.0277 10.8163C16.1073 10.6868 16.1415 10.5369 16.1253 10.3881C16.1092 10.2392 16.0435 10.0989 15.9377 9.9875L14.9252 8.9675ZM13.8077 9.91666L14.4077 10.5542L13.4477 12.1267L12.5627 11.9567C12.0225 11.8524 11.4606 11.939 10.9836 12.2002C10.5066 12.4613 10.1478 12.8788 9.97517 13.3733L9.69017 14.1667H7.77017L7.50017 13.3592C7.32756 12.8646 6.9687 12.4472 6.49172 12.186C6.01474 11.9249 5.45283 11.8382 4.91267 11.9425L4.02767 12.1125L3.05267 10.5471L3.65267 9.90958C4.02163 9.51998 4.22562 9.01562 4.22562 8.49291C4.22562 7.97021 4.02163 7.46585 3.65267 7.07625L3.05267 6.43875L4.01267 4.88041L4.89767 5.05041C5.43783 5.1547 5.99974 5.06804 6.47672 4.80689C6.9537 4.54574 7.31256 4.12828 7.48517 3.63375L7.77017 2.83333H9.69017L9.97517 3.64083C10.1478 4.13536 10.5066 4.55282 10.9836 4.81397C11.4606 5.07512 12.0225 5.16178 12.5627 5.0575L13.4477 4.8875L14.4077 6.46L13.8077 7.0975C13.4429 7.4862 13.2414 7.98765 13.2414 8.50708C13.2414 9.02651 13.4429 9.52796 13.8077 9.91666ZM8.73017 5.66666C8.13682 5.66666 7.5568 5.83284 7.06346 6.14417C6.57011 6.4555 6.18559 6.898 5.95853 7.41573C5.73147 7.93345 5.67206 8.50314 5.78781 9.05275C5.90357 9.60237 6.18929 10.1072 6.60885 10.5035C7.02841 10.8997 7.56295 11.1696 8.1449 11.2789C8.72684 11.3882 9.33004 11.3321 9.87822 11.1177C10.4264 10.9032 10.8949 10.5401 11.2246 10.0741C11.5542 9.60817 11.7302 9.06038 11.7302 8.5C11.7302 7.74855 11.4141 7.02788 10.8515 6.49653C10.2889 5.96517 9.52582 5.66666 8.73017 5.66666ZM8.73017 9.91666C8.4335 9.91666 8.14349 9.83358 7.89681 9.67791C7.65014 9.52225 7.45788 9.30099 7.34435 9.04213C7.23082 8.78327 7.20111 8.49843 7.25899 8.22362C7.31687 7.94881 7.45973 7.69639 7.66951 7.49826C7.87929 7.30014 8.14656 7.16521 8.43753 7.11055C8.7285 7.05589 9.0301 7.08394 9.30419 7.19117C9.57828 7.29839 9.81255 7.47997 9.97737 7.71294C10.1422 7.94591 10.2302 8.21981 10.2302 8.5C10.2302 8.87572 10.0721 9.23605 9.79083 9.50173C9.50952 9.76741 9.12799 9.91666 8.73017 9.91666Z" fill="black"/>
</svg>
