<svg width="21" height="24" viewBox="0 0 21 24" fill="none" xmlns="http://www.w3.org/2000/svg">
<g clip-path="url(#clip0_3_680)">
<path d="M14.477 0.0120105C14.4329 -0.0449895 12.8469 0.0345106 11.4667 1.77001C10.0865 3.50401 10.2988 5.49301 10.3299 5.54401C10.361 5.59501 12.2979 5.67451 13.5344 3.65701C14.7709 1.63951 14.521 0.0705105 14.477 0.0120105ZM18.7677 17.6115C18.7056 17.4675 15.7575 15.7605 16.0319 12.4785C16.3064 9.19501 18.2006 8.29501 18.2304 8.19751C18.2602 8.10001 17.4574 7.01251 16.6068 6.46201C15.9822 6.07389 15.291 5.85152 14.5831 5.81101C14.4433 5.80651 13.9578 5.66851 12.9595 5.98501C12.3018 6.19351 10.8193 6.86851 10.4115 6.89551C10.0023 6.92251 8.78529 6.11251 7.47631 5.89801C6.63862 5.71051 5.75043 6.09451 5.11471 6.39001C4.48029 6.68401 3.2736 7.52101 2.42943 9.74551C1.58526 11.9685 2.02676 15.4905 2.34268 16.5855C2.65859 17.679 3.15189 19.4715 3.99088 20.7795C4.73665 22.2555 5.72583 23.28 6.13885 23.628C6.55187 23.976 7.71713 24.207 8.52505 23.7285C9.17501 23.2665 10.348 23.001 10.8116 23.0205C11.2738 23.04 12.1853 23.2515 13.1188 23.829C13.8581 24.1245 14.5572 24.0015 15.2577 23.6715C15.9581 23.34 16.9719 22.083 18.1553 19.5345C18.6046 18.3495 18.8092 17.709 18.7677 17.6115Z" fill="white"/>
<path d="M14.477 0.0120105C14.4329 -0.0449895 12.8469 0.0345106 11.4667 1.77001C10.0865 3.50401 10.2988 5.49301 10.3299 5.54401C10.361 5.59501 12.2979 5.67451 13.5344 3.65701C14.7709 1.63951 14.521 0.0705105 14.477 0.0120105ZM18.7677 17.6115C18.7056 17.4675 15.7575 15.7605 16.0319 12.4785C16.3064 9.19501 18.2006 8.29501 18.2304 8.19751C18.2602 8.10001 17.4574 7.01251 16.6068 6.46201C15.9822 6.07389 15.291 5.85152 14.5831 5.81101C14.4433 5.80651 13.9578 5.66851 12.9595 5.98501C12.3018 6.19351 10.8193 6.86851 10.4115 6.89551C10.0023 6.92251 8.78529 6.11251 7.47631 5.89801C6.63862 5.71051 5.75043 6.09451 5.11471 6.39001C4.48029 6.68401 3.2736 7.52101 2.42943 9.74551C1.58526 11.9685 2.02676 15.4905 2.34268 16.5855C2.65859 17.679 3.15189 19.4715 3.99088 20.7795C4.73665 22.2555 5.72583 23.28 6.13885 23.628C6.55187 23.976 7.71713 24.207 8.52505 23.7285C9.17501 23.2665 10.348 23.001 10.8116 23.0205C11.2738 23.04 12.1853 23.2515 13.1188 23.829C13.8581 24.1245 14.5572 24.0015 15.2577 23.6715C15.9581 23.34 16.9719 22.083 18.1553 19.5345C18.6046 18.3495 18.8092 17.709 18.7677 17.6115Z" fill="white"/>
</g>
<defs>
<clipPath id="clip0_3_680">
<rect width="20.7158" height="24" fill="white"/>
</clipPath>
</defs>
</svg>
