<svg width="13" height="13" viewBox="0 0 13 13" fill="none" xmlns="http://www.w3.org/2000/svg">
<path d="M6.5 1.34483C9.34677 1.34483 11.6552 3.6527 11.6552 6.5H13C13 2.90987 10.0894 0 6.5 0V1.34483ZM11.6552 6.5C11.6552 9.34672 9.34672 11.6552 6.5 11.6552V13C10.0894 13 13 10.0894 13 6.5H11.6552ZM6.5 11.6552C3.6527 11.6552 1.34483 9.34677 1.34483 6.5H0C0 10.0894 2.90987 13 6.5 13V11.6552ZM1.34483 6.5C1.34483 3.65265 3.65265 1.34483 6.5 1.34483V0C2.90992 0 0 2.90992 0 6.5H1.34483Z" fill="#8982FF"/>
<path d="M6.85264 4.10845C6.85264 3.73708 6.55159 3.43604 6.18023 3.43604C5.80886 3.43604 5.50781 3.73708 5.50781 4.10845H6.85264ZM5.50781 6.89246C5.50781 7.26383 5.80886 7.56487 6.18023 7.56487C6.55159 7.56487 6.85264 7.26383 6.85264 6.89246H5.50781ZM5.50781 4.10845V6.89246H6.85264V4.10845H5.50781Z" fill="#8982FF"/>
<path d="M6.40827 7.90393C5.91312 7.90393 5.51172 8.30533 5.51172 8.80048C5.51172 9.29563 5.91312 9.69703 6.40827 9.69703V7.90393ZM6.41457 9.69703C6.90972 9.69703 7.31112 9.29563 7.31112 8.80048C7.31112 8.30533 6.90972 7.90393 6.41457 7.90393V9.69703ZM6.40827 9.69703H6.41457V7.90393H6.40827V9.69703Z" fill="#8982FF"/>
</svg>
