<svg width="15" height="14" viewBox="0 0 15 14" fill="none" xmlns="http://www.w3.org/2000/svg">
<path d="M4.92796 7.45841C4.7324 7.26344 4.41582 7.26393 4.22086 7.45949C4.02589 7.65505 4.02638 7.97163 4.22194 8.16659L4.92796 7.45841ZM6.20494 9.4375L5.85192 9.79159C6.04706 9.98613 6.36281 9.98613 6.55795 9.79159L6.20494 9.4375ZM10.6329 5.72909C10.8285 5.53413 10.829 5.21755 10.634 5.02199C10.439 4.82643 10.1225 4.82594 9.92689 5.02091L10.6329 5.72909ZM7.01994 14C10.8955 14 14.0399 10.8674 14.0399 7H13.0399C13.0399 10.3123 10.3461 13 7.01994 13V14ZM14.0399 7C14.0399 3.13256 10.8955 0 7.01994 0V1C10.3461 1 13.0399 3.68773 13.0399 7H14.0399ZM7.01994 0C3.14438 0 0 3.13256 0 7H1C1 3.68773 3.69377 1 7.01994 1V0ZM0 7C0 10.8674 3.14438 14 7.01994 14V13C3.69377 13 1 10.3123 1 7H0ZM4.22194 8.16659L5.85192 9.79159L6.55795 9.0834L4.92796 7.45841L4.22194 8.16659ZM6.55795 9.79159L10.6329 5.72909L9.92689 5.02091L5.85192 9.0834L6.55795 9.79159Z" fill="#8982FF"/>
</svg>
