<svg width="38" height="15" viewBox="0 0 38 15" fill="none" xmlns="http://www.w3.org/2000/svg">
<path d="M22.274 3.94092C22.274 4.30413 23.0273 4.59857 23.9567 4.59857C24.8861 4.59857 25.6395 4.30413 25.6395 3.94092H22.274ZM25.6395 10.5281C25.6395 10.1649 24.8861 9.87044 23.9567 9.87044C23.0273 9.87044 22.274 10.1649 22.274 10.5281H25.6395ZM25.6395 3.94092V3.27758H22.274V3.94092H25.6395ZM25.6395 3.27758C25.6395 1.46754 21.8844 0 17.253 0V1.3153C20.0257 1.3153 22.274 2.19396 22.274 3.27758H25.6395ZM17.253 0H8.38458V1.3153H17.253V0ZM8.38458 0C3.75472 0 0 1.46766 0 3.27758H3.36547C3.36547 2.19385 5.61401 1.3153 8.38458 1.3153V0ZM0 3.27758V11.1907H3.36547V3.27758H0ZM0 11.1907C0 13.0006 3.75472 14.4683 8.38458 14.4683V13.153C5.61401 13.153 3.36547 12.2745 3.36547 11.1907H0ZM8.38458 14.4683H17.2712V13.153H8.38458V14.4683ZM17.2712 14.4683C21.8911 14.4683 25.6395 13.0045 25.6395 11.1985H22.274C22.274 12.2776 20.0336 13.153 17.2712 13.153V14.4683ZM25.6395 11.1985V10.5281H22.274V11.1985H25.6395Z" fill="white"/>
<path d="M36.3151 7.53642C37.2445 7.53642 37.9979 7.24198 37.9979 6.87877C37.9979 6.51556 37.2445 6.22112 36.3151 6.22112V7.53642ZM14.4105 6.22112C13.4811 6.22112 12.7277 6.51556 12.7277 6.87877C12.7277 7.24198 13.4811 7.53642 14.4105 7.53642V6.22112ZM36.3151 6.22112H14.4105V7.53642H36.3151V6.22112Z" fill="white"/>
<path d="M32.1776 4.69535C31.519 4.43909 30.4536 4.44002 29.7979 4.69742C29.1422 4.95482 29.1446 5.37122 29.8032 5.62747L32.1776 4.69535ZM36.3169 7.23389L37.5044 7.69988C37.8215 7.57646 37.9997 7.40875 37.9997 7.23384C37.9997 7.05893 37.8213 6.89124 37.5042 6.76783L36.3169 7.23389ZM29.803 8.84111C29.1445 9.09741 29.1423 9.5138 29.7981 9.77116C30.4539 10.0285 31.5194 10.0294 32.1778 9.77308L29.803 8.84111ZM29.8032 5.62747L35.1297 7.69995L37.5042 6.76783L32.1776 4.69535L29.8032 5.62747ZM35.1295 6.76792L29.803 8.84111L32.1778 9.77308L37.5044 7.69988L35.1295 6.76792Z" fill="white"/>
</svg>
