<svg width="43" height="11" viewBox="0 0 43 11" fill="none" xmlns="http://www.w3.org/2000/svg">
<path d="M11.3071 1.9442L12.5896 2.26295L12.591 2.26254L11.3071 1.9442ZM15.0043 0.644752L14.3604 0.207287L14.3599 0.207346L15.0043 0.644752ZM27.3482 1.08216C27.8393 1.13496 28.294 1.26949 28.7994 1.51376C29.0523 1.63606 29.2413 1.74542 29.4941 1.87881C29.7045 1.98982 30.0064 2.14426 30.4082 2.26254L32.9759 1.62588C32.9773 1.62632 32.9666 1.62316 32.9441 1.61469C32.9218 1.60633 32.893 1.59463 32.8572 1.57872C32.7835 1.54599 32.6996 1.50417 32.5963 1.44967C32.4099 1.35132 32.1336 1.19554 31.8417 1.05442C31.2572 0.771877 30.3032 0.386502 28.6371 0.207346L27.3482 1.08216ZM30.4082 2.26254C31.6848 2.63834 33.4527 2.76294 34.5349 2.76294V1.82138C34.4232 1.82138 34.1488 1.81237 33.8202 1.77745C33.5023 1.74366 33.2044 1.69314 32.9759 1.62588L30.4082 2.26254ZM34.5349 2.76294C37.285 2.76294 39.5138 3.36528 39.5138 4.10747H42.9991C42.9991 2.84508 39.2092 1.82138 34.5349 1.82138V2.76294ZM39.5138 4.10747V7.45132H42.9991V4.10747H39.5138ZM39.5138 7.45132C39.5138 8.53578 36.2573 9.41558 32.2431 9.41558V10.3571C38.1821 10.3571 42.9991 9.05579 42.9991 7.45132H39.5138ZM32.2431 9.41558H10.7561V10.3571H32.2431V9.41558ZM10.7561 9.41558C6.73999 9.41558 3.48523 8.53585 3.48523 7.45132H0C0 9.05572 4.81462 10.3571 10.7561 10.3571V9.41558ZM3.48523 7.45132V4.10747H0V7.45132H3.48523ZM3.48523 4.10747C3.48523 3.36528 5.71414 2.76294 8.46424 2.76294V1.82138C3.79002 1.82138 0 2.84508 0 4.10747H3.48523ZM8.46424 2.76294C9.54522 2.76294 11.3117 2.6382 12.5896 2.26295L10.0247 1.62547C9.79472 1.69299 9.49562 1.74362 9.17732 1.77745C8.8482 1.81242 8.57441 1.82138 8.46424 1.82138V2.76294ZM12.591 2.26254C12.993 2.14419 13.2947 1.98968 13.505 1.87866C13.7577 1.74521 13.9463 1.63591 14.1991 1.51359C14.7039 1.26934 15.158 1.13493 15.6488 1.08216L14.3599 0.207346C12.6934 0.386541 11.74 0.772025 11.156 1.05459C10.8644 1.19569 10.5883 1.35153 10.4022 1.44983C10.299 1.50431 10.2152 1.54611 10.1416 1.57882C10.1059 1.59472 10.0771 1.60639 10.0549 1.61474C10.0325 1.6232 10.0217 1.62632 10.0233 1.62588L12.591 2.26254ZM15.6482 1.08222C15.9329 1.05164 16.6556 1.01194 17.8033 0.983016C18.8881 0.955671 20.1864 0.941558 21.4993 0.941558C22.8122 0.941558 24.1104 0.955671 25.1949 0.983015C26.3424 1.01195 27.0644 1.05164 27.3482 1.08216L28.6371 0.207346C27.8423 0.121883 26.6713 0.0745893 25.5187 0.04553C24.3031 0.0148823 22.8939 0 21.4993 0C20.1047 0 18.6953 0.0148823 17.4795 0.045529C16.3265 0.0745912 15.1555 0.121884 14.3604 0.207287L15.6482 1.08222Z" fill="white"/>
<path d="M32.1763 3.02926C31.2139 3.02926 30.4337 3.24004 30.4337 3.50004C30.4337 3.76005 31.2139 3.97082 32.1763 3.97082V3.02926ZM32.1955 3.97082C33.1579 3.97082 33.9381 3.76005 33.9381 3.50004C33.9381 3.24004 33.1579 3.02926 32.1955 3.02926V3.97082ZM32.1763 3.97082H32.1955V3.02926H32.1763V3.97082Z" fill="white"/>
<path d="M30.0338 5.8824C30.0338 4.60914 26.2143 3.57726 21.5012 3.57726V4.51882C24.2894 4.51882 26.5486 5.12915 26.5486 5.8824H30.0338ZM21.5012 3.57726C16.7882 3.57726 12.9686 4.60914 12.9686 5.8824H16.4539C16.4539 5.12915 18.713 4.51882 21.5012 4.51882V3.57726ZM12.9686 5.8824C12.9686 7.15565 16.7882 8.18754 21.5012 8.18754V7.24598C18.713 7.24598 16.4539 6.63565 16.4539 5.8824H12.9686ZM21.5012 8.18754C26.2143 8.18754 30.0338 7.15565 30.0338 5.8824H26.5486C26.5486 6.63565 24.2894 7.24598 21.5012 7.24598V8.18754Z" fill="white"/>
</svg>
