<svg width="28" height="19" viewBox="0 0 28 19" fill="none" xmlns="http://www.w3.org/2000/svg">
<path d="M22.7572 8.66217C22.7572 12.4923 18.2271 15.597 12.6387 15.597V17.3243C19.6189 17.3243 25.2773 13.4462 25.2773 8.66217H22.7572ZM12.6387 15.597C7.05039 15.597 2.52017 12.4923 2.52017 8.66217H0C0 13.4462 5.65854 17.3243 12.6387 17.3243V15.597ZM2.52017 8.66217C2.52017 4.83211 7.05039 1.72725 12.6387 1.72725V0C5.65854 0 0 3.87819 0 8.66217H2.52017ZM12.6387 1.72725C18.2271 1.72725 22.7572 4.83211 22.7572 8.66217H25.2773C25.2773 3.87819 19.6189 0 12.6387 0V1.72725Z" fill="#AAAAAA"/>
<path d="M25.5702 18.747C26.0623 19.0843 26.8601 19.0843 27.3522 18.7471C27.8443 18.4098 27.8444 17.863 27.3523 17.5257L25.5702 18.747ZM22.3119 14.0709C21.8199 13.7337 21.022 13.7336 20.5299 14.0709C20.0378 14.4082 20.0378 14.955 20.5298 15.2922L22.3119 14.0709ZM27.3523 17.5257L22.3119 14.0709L20.5298 15.2922L25.5702 18.747L27.3523 17.5257Z" fill="#AAAAAA"/>
</svg>
