<svg width="13" height="15" viewBox="0 0 13 15" fill="none" xmlns="http://www.w3.org/2000/svg">
<path d="M12.2069 8.99312L12.9799 9.06019C12.9819 9.03789 12.9828 9.01551 12.9828 8.99312H12.2069ZM0.775864 8.99312H0C0 9.01551 0.000969313 9.0379 0.00290587 9.0602L0.775864 8.99312ZM8.67423 13.975C8.96098 13.6566 8.93533 13.166 8.61692 12.8792C8.29851 12.5925 7.80793 12.6181 7.52118 12.9366L8.67423 13.975ZM5.4006 12.9372C5.11421 12.6184 4.62365 12.5922 4.30493 12.8786C3.98619 13.165 3.95999 13.6555 4.24638 13.9742L5.4006 12.9372ZM6.4914 12.208C8.38462 12.208 9.90584 12.092 10.9905 11.6672C11.5516 11.4475 12.0349 11.1311 12.3894 10.6725C12.7461 10.2111 12.9274 9.66406 12.9799 9.06019L11.434 8.92606C11.4017 9.29843 11.3002 9.54436 11.1618 9.72337C11.0213 9.90515 10.7973 10.0764 10.4247 10.2223C9.64192 10.5289 8.39008 10.6562 6.4914 10.6562V12.208ZM12.9828 8.99312C12.9828 8.41758 12.8914 7.96503 12.7406 7.57034C12.5964 7.19304 12.4014 6.88566 12.2614 6.65142C12.1158 6.40754 12.0001 6.19909 11.9133 5.93013C11.8271 5.66262 11.7597 5.30337 11.7597 4.77345H10.208C10.208 5.44051 10.2936 5.96334 10.4366 6.40659C10.5792 6.84838 10.7693 7.17937 10.9294 7.44727C11.0952 7.72481 11.206 7.90153 11.2911 8.12428C11.3696 8.32964 11.4311 8.5931 11.4311 8.99312H12.9828ZM11.7597 4.77345C11.7597 2.45858 9.62337 0 6.4914 0V1.55173C8.79957 1.55173 10.208 3.34838 10.208 4.77345H11.7597ZM6.4914 0C3.35942 0 1.22302 2.45858 1.22302 4.77345H2.77475C2.77475 3.34838 4.18323 1.55173 6.4914 1.55173V0ZM1.22302 4.77345C1.22302 5.30337 1.15571 5.66262 1.0694 5.93013C0.982626 6.19909 0.867028 6.40754 0.721326 6.65142C0.581384 6.88566 0.386411 7.19304 0.242218 7.57034C0.0913833 7.96503 0 8.41758 0 8.99312H1.55173C1.55173 8.5931 1.61322 8.32964 1.6917 8.12428C1.77683 7.90153 1.8876 7.72481 2.05342 7.44727C2.21348 7.17937 2.40364 6.84838 2.54617 6.40659C2.68918 5.96334 2.77475 5.44051 2.77475 4.77345H1.22302ZM0.00290587 9.0602C0.0554288 9.66542 0.236701 10.2134 0.593544 10.6754C0.948351 11.1346 1.43207 11.4509 1.99339 11.6702C3.07809 12.094 4.59932 12.208 6.4914 12.208V10.6562C4.59224 10.6562 3.34075 10.5306 2.55801 10.2249C2.18561 10.0794 1.96194 9.90847 1.82151 9.7267C1.68313 9.54758 1.58134 9.30077 1.54882 8.92604L0.00290587 9.0602ZM7.52118 12.9366C6.90908 13.6162 6.01538 13.6214 5.4006 12.9372L4.24638 13.9742C5.48368 15.3512 7.45179 15.3323 8.67423 13.975L7.52118 12.9366Z" fill="black"/>
</svg>
