<svg width="13" height="13" viewBox="0 0 13 13" fill="none" xmlns="http://www.w3.org/2000/svg">
<path d="M11.6682 12.7715C11.9728 13.0762 12.4667 13.0762 12.7713 12.7715C13.0759 12.4669 13.0759 11.973 12.7713 11.6684L11.6682 12.7715ZM10.4834 9.38037C10.1788 9.07576 9.68498 9.07574 9.38037 9.38032C9.07576 9.68491 9.07574 10.1788 9.38032 10.4834L10.4834 9.38037ZM10.33 5.94498C10.33 8.36676 8.36676 10.33 5.94498 10.33V11.89C9.2283 11.89 11.89 9.2283 11.89 5.94498H10.33ZM5.94498 10.33C3.5232 10.33 1.55997 8.36676 1.55997 5.94498H0C0 9.2283 2.66166 11.89 5.94498 11.89V10.33ZM1.55997 5.94498C1.55997 3.5232 3.5232 1.55997 5.94498 1.55997V0C2.66166 0 0 2.66166 0 5.94498H1.55997ZM5.94498 1.55997C8.36676 1.55997 10.33 3.5232 10.33 5.94498H11.89C11.89 2.66166 9.2283 0 5.94498 0V1.55997ZM12.7713 11.6684L10.4834 9.38037L9.38032 10.4834L11.6682 12.7715L12.7713 11.6684Z" fill="black"/>
</svg>
