<svg width="568" height="146" viewBox="0 0 568 146" fill="none" xmlns="http://www.w3.org/2000/svg">
<path d="M86.6455 124.617C74.0325 129.008 70.4578 136.735 70.4578 136.735C70.4578 136.735 87.3328 137.342 99.9457 132.95C112.559 128.559 116.134 120.832 116.134 120.832C116.134 120.832 99.2584 120.225 86.6455 124.617Z" fill="#F1F1F1"/>
<path d="M91.9003 126.679C85.8384 133.459 70.6564 136.953 70.6564 136.953C70.6564 136.953 65.3028 129.454 71.3647 122.673C77.4267 115.893 92.6085 112.398 92.6085 112.398C92.6085 112.398 97.9621 119.898 91.9003 126.679Z" fill="#F1F1F1"/>
<path d="M454.788 107.076C453.448 102.86 453.094 98.5876 453.732 94.3353L454.788 87.2977C448.97 92.7051 450.285 99.8223 454.788 107.076V107.076Z" fill="#CACACA"/>
<path d="M459.324 108.254C458.679 105.738 458.509 103.2 458.816 100.67L459.324 96.4807C456.523 99.6995 457.156 103.936 459.324 108.254Z" fill="#CACACA"/>
<path d="M479.49 113.434V115.789C479.488 115.976 479.328 116.155 479.045 116.287C478.762 116.42 478.378 116.494 477.978 116.495H475.457C475.391 116.495 475.325 116.501 475.264 116.513C475.203 116.525 475.147 116.542 475.1 116.564C475.053 116.586 475.016 116.612 474.991 116.641C474.966 116.669 474.953 116.7 474.953 116.731V136.038C474.951 136.226 474.791 136.405 474.508 136.537C474.225 136.669 473.841 136.744 473.441 136.745H442.69C442.289 136.745 441.905 136.67 441.621 136.538C441.338 136.405 441.178 136.226 441.178 136.038V116.731C441.178 116.668 441.124 116.609 441.03 116.564C440.936 116.52 440.808 116.496 440.674 116.495H437.649C437.248 116.495 436.864 116.421 436.58 116.288C436.297 116.156 436.137 115.976 436.137 115.789V113.434C436.137 113.342 436.176 113.25 436.252 113.164C436.328 113.078 436.439 113 436.579 112.935C436.72 112.869 436.887 112.817 437.07 112.781C437.254 112.746 437.451 112.728 437.649 112.728H477.978C478.378 112.729 478.762 112.803 479.046 112.935C479.329 113.068 479.489 113.247 479.49 113.434Z" fill="#F2F2F2"/>
<path d="M474.998 116.99H441.223V117.696H474.998V116.99Z" fill="#E6E6E6"/>
<path d="M474.952 127.384C463.65 129.569 452.225 129.593 440.673 127.384V122.408C451.794 120.663 463.831 120.663 474.952 122.408V127.384Z" fill="#E6E6E6"/>
<path d="M285.64 51.2945C310.87 51.2945 331.322 41.7413 331.322 29.9569C331.322 18.1724 310.87 8.61911 285.64 8.61911C260.41 8.61911 239.957 18.1724 239.957 29.9569C239.957 41.7413 260.41 51.2945 285.64 51.2945Z" fill="#FEB8B8"/>
<path d="M328.309 11.5485C321.479 6.36812 310.788 2.55092 298.294 0.831669L292.686 2.74326V0.261113C289.685 0.0466032 286.648 -0.0360323 283.614 0.0142937L278.776 2.05918V0.184183C271.612 0.599998 264.71 1.70462 258.506 3.42839C252.301 5.15216 246.929 7.45769 242.727 10.1996C232.219 17.275 230.446 27.1185 240.781 34.2507C243.617 30.1782 247.061 26.357 249.899 22.285C252.128 22.4269 254.388 22.432 256.621 22.3002L260.073 18.5383L261.037 22.141C271.736 21.7058 287.604 20.7498 297.746 19.874L296.76 17.11L302.66 19.4067C305.768 19.0726 307.612 18.7695 307.46 18.5379C315.003 24.2179 324.235 27.8457 331.777 33.5258C334.642 25.5166 337.94 18.8571 328.309 11.5485Z" fill="#2F2E41"/>
<path d="M383.891 84.8276C382.32 80.4133 380.7 75.9143 376.307 71.9376C373.421 69.3329 368.838 66.8507 362.661 66.3357C361.444 66.285 360.248 66.1558 359.107 65.9515C357.298 65.5443 332.974 59.0587 329.108 57.9291C325.789 56.9594 320.549 55.1639 317.907 55.1639C315.249 55.1366 305.057 56.2445 265.276 54.7921C265.276 54.7921 254.348 56.804 245.892 59.2437C245.763 59.2042 204.603 69.5282 203.056 69.5012C200.128 69.4435 197.406 70.3193 195.727 71.4222C194.049 72.525 193.261 73.8904 192.437 75.2104C201.427 84.5619 209.653 93.9253 218.644 103.277C219.065 103.629 219.288 104.025 219.294 104.428C219.113 104.847 218.731 105.241 218.175 105.58C213.766 108.889 213.907 113.049 214.388 116.938C214.87 120.826 215.466 124.933 211.746 128.418C210.734 129.375 209.418 130.251 208.456 131.207C206.202 133.374 205.388 140.305 206.704 142.634L371.63 144.841C368.083 140.288 383.891 84.8276 383.891 84.8276Z" fill="#8982FF"/>
<path d="M178.181 103.691C177.852 104.803 177.819 105.93 178.082 107.045L180.446 122.902C180.668 124.396 180.886 125.887 181.187 127.378C181.754 130.271 182.601 133.141 183.653 136.007C183.676 136.414 184.045 136.8 184.677 137.08C185.309 137.36 186.154 137.512 187.025 137.501C197.43 138.53 208.181 138.489 218.8 138.209C235.005 137.786 276.463 136.987 278.996 135.45C281.529 133.913 280.053 131.427 276.75 130.185C273.448 128.942 218.738 125.912 218.738 125.912C219.273 123.933 220.885 122.07 222.415 120.191C225.163 116.859 227.729 113.418 227.778 109.848C227.828 106.279 224.949 102.526 218.689 100.481C213.539 98.8026 206.909 98.4912 200.634 98.5603C196.069 98.6216 188.18 98.1107 184.01 98.9445C180.71 99.6233 178.797 102.182 178.181 103.691Z" fill="#FBBEBE"/>
<path d="M191.961 75.4948C191.16 75.8867 190.539 76.3508 190.136 76.8589C183.487 83.858 179.559 91.3543 178.538 98.9967C178.556 99.3693 178.372 99.7381 178.003 100.069C177.64 100.289 177.235 100.493 176.794 100.68C176.41 100.892 176.119 101.139 175.938 101.404C175.757 101.669 175.69 101.949 175.74 102.226C175.791 102.504 175.958 102.774 176.232 103.022C176.506 103.269 176.881 103.489 177.337 103.668C177.412 103.698 177.489 103.726 177.567 103.753C178.924 102.56 182.173 102.17 185.061 102.067C198.888 101.556 212.395 104.56 226.263 104.334C225.284 102.754 223.877 101.237 223.079 99.6388C219.55 92.5424 228.352 84.8162 222.956 77.981C221.878 76.6133 220.077 75.2685 217.239 74.6692C216.064 74.4478 214.835 74.2958 213.579 74.2167C210.075 73.9209 203.099 72.6568 199.711 73.164C198.46 73.3524 197.967 73.9016 196.93 74.2335C195.356 74.7033 193.267 74.8761 191.961 75.4948Z" fill="#8982FF"/>
<path d="M383.989 98.9446C379.819 98.1107 371.931 98.6216 367.365 98.5603C361.09 98.4912 354.46 98.8026 349.311 100.481C343.051 102.526 340.172 106.279 340.221 109.848C340.271 113.418 342.837 116.859 345.585 120.191C347.115 122.07 348.727 123.933 349.262 125.912C349.262 125.912 294.552 128.942 291.249 130.185C287.947 131.427 286.47 133.913 289.003 135.45C291.536 136.987 370.569 138.53 380.975 137.501C381.846 137.512 382.69 137.36 383.323 137.08C383.955 136.8 384.323 136.414 384.347 136.007C385.399 133.141 386.246 130.271 386.813 127.378C387.113 125.887 387.332 124.396 387.554 122.902L389.917 107.045C390.181 105.93 390.148 104.803 389.819 103.691C389.202 102.182 387.289 99.6233 383.989 98.9446Z" fill="#FBBEBE"/>
<path d="M371.07 74.2336C370.033 73.9017 369.54 73.3525 368.29 73.1641C364.901 72.6569 357.925 73.921 354.421 74.2168C353.166 74.2959 351.936 74.4479 350.761 74.6693C347.923 75.2686 346.122 76.6134 345.044 77.9811C339.648 84.8163 348.45 92.5425 344.921 99.6389C344.123 101.237 342.716 102.755 341.737 104.334C355.606 104.56 369.112 101.556 382.939 102.067C385.827 102.17 389.076 102.56 390.433 103.753C390.511 103.726 390.588 103.698 390.663 103.668C391.119 103.489 391.495 103.269 391.769 103.022C392.042 102.774 392.209 102.504 392.26 102.227C392.31 101.949 392.243 101.67 392.063 101.404C391.882 101.139 391.591 100.893 391.206 100.68C390.765 100.493 390.361 100.289 389.997 100.069C389.628 99.7382 389.444 99.3694 389.462 98.9968C388.441 91.3544 384.513 83.8581 377.865 76.859C377.461 76.3509 376.84 75.8867 376.039 75.4949C374.734 74.8762 372.645 74.7034 371.07 74.2336Z" fill="#8982FF"/>
<path d="M272.11 138.259C278.92 138.259 284.44 135.68 284.44 132.5C284.44 129.319 278.92 126.741 272.11 126.741C265.301 126.741 259.78 129.319 259.78 132.5C259.78 135.68 265.301 138.259 272.11 138.259Z" fill="#FBBEBE"/>
<path d="M299.412 138.259C306.221 138.259 311.742 135.68 311.742 132.5C311.742 129.319 306.221 126.741 299.412 126.741C292.602 126.741 287.082 129.319 287.082 132.5C287.082 135.68 292.602 138.259 299.412 138.259Z" fill="#FBBEBE"/>
<path d="M375.521 145.477H206.128C204.151 145.476 202.255 145.108 200.856 144.455C199.458 143.802 198.671 142.917 198.669 141.993V93.9925C198.671 93.0687 199.458 92.1832 200.856 91.53C202.255 90.8768 204.151 90.5094 206.128 90.5084H375.521C377.499 90.5094 379.395 90.8768 380.793 91.53C382.192 92.1832 382.978 93.0687 382.981 93.9925V141.993C382.978 142.917 382.192 143.802 380.793 144.455C379.395 145.108 377.499 145.476 375.521 145.477Z" fill="#3F3D56"/>
<path d="M290.413 120.298C293.139 120.298 295.348 119.266 295.348 117.993C295.348 116.72 293.139 115.687 290.413 115.687C287.687 115.687 285.477 116.72 285.477 117.993C285.477 119.266 287.687 120.298 290.413 120.298Z" fill="white"/>
<path d="M568 135.795H0V143.948H33.5966V145.843H534.417V143.948H568V135.795Z" fill="#F1F1F1"/>
<path d="M243.633 37.9099C236.293 37.9099 230.342 34.9046 230.342 31.1976V27.8415C230.342 24.1344 236.293 21.1292 243.633 21.1292V37.9099H243.633Z" fill="#8982FF"/>
<path d="M328.462 21.1292C335.803 21.1292 341.753 24.1344 341.753 27.8415V31.1976C341.753 34.9046 335.803 37.9098 328.462 37.9098V21.1292Z" fill="#8982FF"/>
<path d="M335.429 28.3688H333.32C333.32 14.8625 311.563 3.87428 284.819 3.87428C258.075 3.87428 236.317 14.8625 236.317 28.3688H234.208C234.208 14.2753 256.912 2.8093 284.818 2.8093C312.725 2.80931 335.429 14.2753 335.429 28.3688Z" fill="#8982FF"/>
</svg>
