<svg width="11" height="13" viewBox="0 0 11 13" fill="none" xmlns="http://www.w3.org/2000/svg">
<path d="M5.3325 12.3276L5.14195 12.9712C5.2662 13.0096 5.3988 13.0096 5.52305 12.9712L5.3325 12.3276ZM9.76598 2.28446L10.2313 1.80938L10.2309 1.80899L9.76598 2.28446ZM0.899633 2.28446L1.36457 2.75993L1.36495 2.75955L0.899633 2.28446ZM5.3325 12.3276C5.52305 12.9712 5.5233 12.9711 5.52357 12.971C5.52369 12.971 5.52397 12.9709 5.5242 12.9708C5.52466 12.9707 5.52518 12.9705 5.52578 12.9703C5.52698 12.9699 5.52846 12.9694 5.53022 12.9689C5.53373 12.9678 5.53836 12.9663 5.54407 12.9645C5.55548 12.9608 5.57121 12.9556 5.59098 12.9489C5.63049 12.9356 5.6862 12.9161 5.75579 12.8904C5.89484 12.8388 6.09007 12.7616 6.32283 12.6565C6.78652 12.4468 7.40881 12.1219 8.03533 11.6605C9.28032 10.7437 10.6272 9.21804 10.6272 6.93331H9.31214C9.31214 8.60699 8.34042 9.77853 7.26683 10.5692C6.73406 10.9616 6.19707 11.243 5.79129 11.4264C5.58932 11.5177 5.42226 11.5836 5.30772 11.626C5.25051 11.6472 5.20659 11.6625 5.17818 11.672C5.16398 11.6769 5.15368 11.6803 5.14754 11.6823C5.14447 11.6833 5.14244 11.6839 5.14151 11.6842C5.14103 11.6843 5.14083 11.6844 5.1409 11.6843C5.14095 11.6843 5.14105 11.6843 5.14123 11.6842C5.1413 11.6842 5.14149 11.6842 5.14153 11.6842C5.14173 11.6842 5.14195 11.6841 5.3325 12.3276ZM10.6272 6.93331C10.6272 5.9487 10.6376 5.19119 10.6475 4.60181C10.6573 4.01827 10.667 3.58286 10.6647 3.26209C10.6625 2.952 10.6501 2.67924 10.5912 2.44634C10.5203 2.16608 10.3916 1.97356 10.2313 1.80938L9.30066 2.75955C9.32624 2.78574 9.3159 2.77464 9.31805 2.78313C9.33218 2.83899 9.34748 2.96233 9.34971 3.27198C9.35186 3.57094 9.34277 3.97891 9.33269 4.5787C9.3227 5.17265 9.31214 5.9384 9.31214 6.93331H10.6272ZM10.2309 1.80899C10.1048 1.68008 9.9258 1.57816 9.79798 1.50987C9.64604 1.42873 9.46141 1.34185 9.26066 1.25389C8.85776 1.07732 8.3579 0.882353 7.85626 0.701494C7.35421 0.520495 6.84098 0.350242 6.41019 0.224254C6.19524 0.161392 5.99476 0.107769 5.82325 0.0692785C5.66727 0.0342761 5.48597 0 5.3325 0V1.34483C5.33104 1.34483 5.39066 1.34903 5.54137 1.38285C5.67654 1.41319 5.8485 1.45873 6.04861 1.51725C6.44791 1.63403 6.93523 1.79539 7.41902 1.96982C7.90319 2.14437 8.37442 2.32861 8.74269 2.49001C8.92755 2.57102 9.0785 2.64281 9.18908 2.70187C9.32374 2.77381 9.33402 2.79366 9.30104 2.75993L10.2309 1.80899ZM5.3325 0C5.17903 0 4.99773 0.0342761 4.84175 0.0692785C4.67025 0.107769 4.46977 0.161393 4.25482 0.224256C3.82403 0.350244 3.31081 0.520499 2.80881 0.701499C2.30719 0.882359 1.80738 1.07734 1.40454 1.25391C1.20386 1.34188 1.01923 1.42876 0.867353 1.50993C0.739635 1.57818 0.560416 1.68021 0.434315 1.80938L1.36495 2.75955C1.33178 2.79352 1.34178 2.77377 1.47643 2.70182C1.58692 2.64277 1.7378 2.57099 1.92262 2.48998C2.29079 2.3286 2.76195 2.14437 3.24608 1.96981C3.72982 1.79539 4.21712 1.63403 4.61641 1.51725C4.81651 1.45873 4.98847 1.41318 5.12363 1.38285C5.27434 1.34903 5.33396 1.34483 5.3325 1.34483V0ZM0.434693 1.80899C0.274263 1.97305 0.145252 2.16557 0.0741579 2.44598C0.0150746 2.67901 0.00262459 2.95188 0.000355691 3.262C-0.00199035 3.58282 0.00767261 4.01825 0.0174715 4.6018C0.0273685 5.19119 0.0378117 5.9487 0.0378117 6.93331H1.35286C1.35286 5.9384 1.3423 5.17265 1.33233 4.57871C1.32225 3.97893 1.31318 3.57099 1.31537 3.27206C1.31763 2.96245 1.33299 2.83922 1.34711 2.7835C1.34923 2.77516 1.33884 2.78625 1.36457 2.75993L0.434693 1.80899ZM0.0378117 6.93331C0.0378117 9.21804 1.38468 10.7437 2.62967 11.6605C3.25619 12.1219 3.87849 12.4468 4.34217 12.6565C4.57494 12.7616 4.77015 12.8388 4.90921 12.8904C4.9788 12.9161 5.03451 12.9356 5.07403 12.9489C5.09379 12.9556 5.10952 12.9608 5.12093 12.9645C5.12664 12.9663 5.13127 12.9678 5.13478 12.9689C5.13654 12.9694 5.13802 12.9699 5.13922 12.9703C5.13981 12.9705 5.14034 12.9707 5.1408 12.9708C5.14102 12.9709 5.14131 12.971 5.14143 12.971C5.1417 12.9711 5.14195 12.9712 5.3325 12.3276C5.52305 11.6841 5.52326 11.6842 5.52347 11.6842C5.52351 11.6842 5.52369 11.6842 5.52378 11.6842C5.52396 11.6843 5.52406 11.6843 5.5241 11.6843C5.52417 11.6844 5.52397 11.6843 5.52349 11.6842C5.52255 11.6839 5.52053 11.6833 5.51746 11.6823C5.51132 11.6803 5.50102 11.6769 5.48682 11.672C5.45842 11.6625 5.41449 11.6472 5.35728 11.626C5.24275 11.5836 5.07568 11.5177 4.87372 11.4264C4.46793 11.243 3.93094 10.9616 3.39817 10.5692C2.32458 9.77853 1.35286 8.60699 1.35286 6.93331H0.0378117Z" fill="#8982FF"/>
<path d="M4.2283 5.83755C3.97172 5.57475 3.5554 5.57441 3.29842 5.8368C3.04144 6.09919 3.04111 6.52493 3.29768 6.78774L4.2283 5.83755ZM4.90657 7.48398L4.44126 7.95907C4.56456 8.08536 4.73188 8.15635 4.90639 8.15639C5.0809 8.15644 5.24827 8.08555 5.37163 7.95932L4.90657 7.48398ZM7.72768 5.54867C7.9844 5.28601 7.98429 4.86026 7.72745 4.59773C7.4706 4.33521 7.05428 4.33532 6.79757 4.59798L7.72768 5.54867ZM3.29768 6.78774L4.44126 7.95907L5.37187 7.00888L4.2283 5.83755L3.29768 6.78774ZM5.37163 7.95932L7.72768 5.54867L6.79757 4.59798L4.44151 7.00863L5.37163 7.95932Z" fill="#8982FF"/>
</svg>
