<svg width="17" height="19" viewBox="0 0 17 19" fill="none" xmlns="http://www.w3.org/2000/svg">
<path d="M0.981982 6.07694C0.566718 6.07694 0.230082 6.41358 0.230082 6.82884C0.230082 7.24411 0.566718 7.58074 0.981982 7.58074V6.07694ZM16.0267 7.58074C16.442 7.58074 16.7786 7.24411 16.7786 6.82884C16.7786 6.41358 16.442 6.07694 16.0267 6.07694V7.58074ZM12.1797 9.36609C11.7644 9.36609 11.4278 9.70272 11.4278 10.118C11.4278 10.5333 11.7644 10.8699 12.1797 10.8699V9.36609ZM12.1872 10.8699C12.6025 10.8699 12.9391 10.5333 12.9391 10.118C12.9391 9.70272 12.6025 9.36609 12.1872 9.36609V10.8699ZM8.50425 9.36609C8.08899 9.36609 7.75234 9.70272 7.75234 10.118C7.75234 10.5333 8.08899 10.8699 8.50425 10.8699V9.36609ZM8.51176 10.8699C8.92702 10.8699 9.26366 10.5333 9.26366 10.118C9.26366 9.70272 8.92702 9.36609 8.51176 9.36609V10.8699ZM4.82186 9.36609C4.40659 9.36609 4.06996 9.70272 4.06996 10.118C4.06996 10.5333 4.40659 10.8699 4.82186 10.8699V9.36609ZM4.82938 10.8699C5.24464 10.8699 5.58128 10.5333 5.58128 10.118C5.58128 9.70272 5.24464 9.36609 4.82938 9.36609V10.8699ZM12.1797 12.5842C11.7644 12.5842 11.4278 12.9209 11.4278 13.3361C11.4278 13.7514 11.7644 14.088 12.1797 14.088V12.5842ZM12.1872 14.088C12.6025 14.088 12.9391 13.7514 12.9391 13.3361C12.9391 12.9209 12.6025 12.5842 12.1872 12.5842V14.088ZM8.50425 12.5842C8.08899 12.5842 7.75234 12.9209 7.75234 13.3361C7.75234 13.7514 8.08899 14.088 8.50425 14.088V12.5842ZM8.51176 14.088C8.92702 14.088 9.26366 13.7514 9.26366 13.3361C9.26366 12.9209 8.92702 12.5842 8.51176 12.5842V14.088ZM4.82186 12.5842C4.40659 12.5842 4.06996 12.9209 4.06996 13.3361C4.06996 13.7514 4.40659 14.088 4.82186 14.088V12.5842ZM4.82938 14.088C5.24464 14.088 5.58128 13.7514 5.58128 13.3361C5.58128 12.9209 5.24464 12.5842 4.82938 12.5842V14.088ZM12.6012 0.7519C12.6012 0.336637 12.2645 0 11.8492 0C11.434 0 11.0973 0.336637 11.0973 0.7519H12.6012ZM11.0973 3.47712C11.0973 3.89239 11.434 4.22902 11.8492 4.22902C12.2645 4.22902 12.6012 3.89239 12.6012 3.47712H11.0973ZM5.91069 0.7519C5.91069 0.336637 5.57405 0 5.15879 0C4.74353 0 4.40689 0.336637 4.40689 0.7519H5.91069ZM4.40689 3.47712C4.40689 3.89239 4.74353 4.22902 5.15879 4.22902C5.57405 4.22902 5.91069 3.89239 5.91069 3.47712H4.40689ZM1.5038 9.71247C1.5038 6.84846 1.9909 5.17852 2.97857 4.19094C3.96625 3.20336 5.6362 2.71645 8.49981 2.71645V1.21265C5.55291 1.21265 3.34891 1.69402 1.91526 3.12756C0.481597 4.5611 0 6.76512 0 9.71247H1.5038ZM8.49981 2.71645C11.3639 2.71645 13.034 3.20336 14.0218 4.19097C15.0095 5.17854 15.4967 6.84846 15.4967 9.71247H17.0005C17.0005 6.76512 16.5189 4.56108 15.0851 3.12753C13.6513 1.69402 11.4471 1.21265 8.49981 1.21265V2.71645ZM15.4967 9.71247C15.4967 12.5765 15.0095 14.2464 14.0218 15.234C13.034 16.2216 11.3639 16.7084 8.49981 16.7084V18.2122C11.4471 18.2122 13.6513 17.7309 15.0851 16.2974C16.5189 14.8639 17.0005 12.6598 17.0005 9.71247H15.4967ZM8.49981 16.7084C5.6362 16.7084 3.96625 16.2216 2.97857 15.234C1.9909 14.2464 1.5038 12.5765 1.5038 9.71247H0C0 12.6598 0.481597 14.8639 1.91526 16.2974C3.34891 17.7309 5.55291 18.2122 8.49981 18.2122V16.7084ZM0.981982 7.58074H16.0267V6.07694H0.981982V7.58074ZM12.1797 10.8699H12.1872V9.36609H12.1797V10.8699ZM8.50425 10.8699H8.51176V9.36609H8.50425V10.8699ZM4.82186 10.8699H4.82938V9.36609H4.82186V10.8699ZM12.1797 14.088H12.1872V12.5842H12.1797V14.088ZM8.50425 14.088H8.51176V12.5842H8.50425V14.088ZM4.82186 14.088H4.82938V12.5842H4.82186V14.088ZM11.0973 0.7519V3.47712H12.6012V0.7519H11.0973ZM4.40689 0.7519V3.47712H5.91069V0.7519H4.40689Z" fill="#1AADB6"/>
</svg>
