<svg width="558" height="199" viewBox="0 0 558 199" fill="none" xmlns="http://www.w3.org/2000/svg">
<path d="M534.668 172.479C535.283 163.708 526.885 154.994 510.548 152.006C514.441 160.969 511.137 171.052 501.405 179.904C497.615 183.352 492.696 187.047 494.046 190.564C494.887 192.752 498.141 194.447 502.047 195.522C505.953 196.598 510.504 197.132 515 197.656L515.796 198.03C525.827 190.026 534.053 181.249 534.668 172.479Z" fill="#F2F2F2"/>
<path d="M510.323 152.17C518.513 157.638 522.691 164.65 521.785 171.862C521.653 173.458 521.017 175.036 519.899 176.542C518.666 178.052 516.707 179.403 514.181 180.485C511.845 181.525 509.239 182.476 507.399 183.736C506.49 184.351 505.85 185.048 505.518 185.784C505.185 186.52 505.167 187.28 505.463 188.02C506.15 189.772 508.162 191.213 510.243 192.581C512.553 194.101 515.009 195.658 515.549 197.652C515.615 197.894 516.418 197.778 516.353 197.537C515.413 194.067 509.121 192.05 506.832 188.913C505.764 187.45 505.669 185.76 507.617 184.24C509.321 182.911 512.006 181.93 514.388 180.885C516.885 179.841 518.885 178.554 520.253 177.11C521.522 175.626 522.282 174.055 522.503 172.456C523.093 169.007 522.506 165.534 520.765 162.175C518.896 158.477 515.564 154.983 510.951 151.883C510.668 151.694 510.042 151.982 510.323 152.17L510.323 152.17Z" fill="white"/>
<path d="M522.34 169.508C524.972 169.217 527.349 168.541 529.141 167.575C530.932 166.609 532.048 165.399 532.335 164.116C532.375 163.866 531.566 163.879 531.525 164.129C531.263 165.324 530.223 166.45 528.552 167.348C526.88 168.247 524.662 168.872 522.208 169.136C522.157 169.14 522.107 169.149 522.063 169.162C522.018 169.175 521.98 169.192 521.949 169.212C521.919 169.233 521.897 169.255 521.885 169.28C521.873 169.304 521.871 169.329 521.88 169.354C521.889 169.378 521.908 169.402 521.936 169.423C521.963 169.444 522 169.462 522.043 169.477C522.085 169.491 522.134 169.501 522.185 169.506C522.236 169.512 522.288 169.512 522.34 169.508V169.508Z" fill="white"/>
<path d="M515.49 180.023C513.463 179.351 511.757 178.481 510.485 177.471C509.212 176.461 508.401 175.334 508.105 174.163C508.038 173.922 507.234 174.038 507.302 174.279C507.614 175.496 508.463 176.669 509.793 177.718C511.122 178.767 512.902 179.67 515.015 180.367C515.419 180.498 515.892 180.154 515.49 180.023Z" fill="white"/>
<path d="M517.971 158.779C517.061 158.983 516.056 159.074 515.052 159.041C514.047 159.007 513.078 158.852 512.234 158.59C511.835 158.456 511.362 158.801 511.759 158.934C512.693 159.222 513.764 159.393 514.873 159.43C515.982 159.468 517.092 159.372 518.103 159.15C518.208 159.133 518.298 159.1 518.359 159.056C518.421 159.012 518.448 158.959 518.439 158.907C518.43 158.882 518.409 158.86 518.38 158.84C518.35 158.82 518.312 158.803 518.267 158.791C518.223 158.779 518.173 158.771 518.122 158.769C518.071 158.767 518.019 158.77 517.971 158.779Z" fill="white"/>
<path d="M452.786 167.211C453.03 167.298 453.273 167.386 453.516 167.476C456.77 168.66 459.785 169.986 462.522 171.437C462.738 171.548 462.953 171.661 463.16 171.775C469.717 175.355 474.627 179.554 477.574 184.098C478.782 185.952 479.672 187.849 480.235 189.771C481.024 192.452 481.42 195.419 483.998 197.627C484.26 197.858 484.555 198.08 484.883 198.292L514.633 198.533C514.707 198.517 514.779 198.505 514.852 198.489L516.031 198.525C516.017 198.423 515.997 198.317 515.983 198.215C515.975 198.156 515.96 198.097 515.953 198.037C515.945 197.998 515.938 197.958 515.936 197.922C515.934 197.909 515.931 197.896 515.928 197.886C515.926 197.85 515.916 197.817 515.913 197.784C515.807 197.194 515.694 196.605 515.567 196.015C515.568 196.011 515.568 196.011 515.563 196.008C514.59 191.517 512.805 187.078 509.613 183.007C509.517 182.884 509.422 182.758 509.312 182.636C507.864 180.819 506.071 179.069 503.953 177.408C502.797 176.51 501.534 175.644 500.168 174.815C496.634 172.681 492.32 170.87 487.437 169.469C477.658 166.659 465.646 165.516 453.698 167.086C453.392 167.127 453.093 167.167 452.786 167.211Z" fill="#F2F2F2"/>
<path d="M452.793 167.394C466.993 168.918 479.614 172.707 487.998 178.116C489.899 179.28 491.354 180.596 492.292 182.002C493.127 183.467 493.117 185.013 492.262 186.475C491.524 187.896 490.433 189.331 490.412 190.764C490.395 191.466 490.725 192.159 491.376 192.788C492.027 193.417 492.98 193.963 494.158 194.382C496.996 195.433 500.608 195.877 504.189 196.249C508.165 196.663 512.318 197.061 515.335 198.326C515.701 198.48 516.263 198.164 515.898 198.011C510.649 195.808 502.521 196.196 496.505 194.622C493.697 193.888 491.461 192.71 491.246 191.06C491.059 189.617 492.181 188.137 492.954 186.701C493.828 185.272 493.956 183.763 493.328 182.305C492.555 180.873 491.218 179.524 489.389 178.332C485.415 175.652 480.459 173.337 474.76 171.501C468.163 169.356 460.772 167.831 452.982 167.007C452.491 166.954 452.306 167.341 452.793 167.394Z" fill="white"/>
<path d="M485.489 176.275C489.485 174.344 490.315 171.455 487.452 169.527C487.17 169.337 486.471 169.581 486.753 169.771C489.435 171.577 488.636 174.243 484.901 176.049C484.508 176.239 485.099 176.464 485.489 176.275V176.275Z" fill="white"/>
<path d="M492.831 185.766C490.332 185.897 487.804 185.784 485.4 185.434C482.995 185.083 480.765 184.503 478.844 183.729C478.477 183.576 477.915 183.892 478.281 184.045C480.285 184.849 482.609 185.45 485.113 185.812C487.617 186.174 490.249 186.288 492.849 186.149C493.374 186.126 493.352 185.742 492.831 185.766L492.831 185.766Z" fill="white"/>
<path d="M467.967 169.889C467.372 170.315 466.587 170.673 465.67 170.937C464.752 171.202 463.724 171.366 462.658 171.419C462.134 171.44 462.156 171.823 462.676 171.803C463.854 171.742 464.989 171.56 466.004 171.268C467.02 170.977 467.89 170.584 468.555 170.115C468.627 170.078 468.666 170.029 468.663 169.979C468.661 169.928 468.617 169.88 468.542 169.844C468.453 169.815 468.343 169.803 468.236 169.812C468.129 169.82 468.033 169.848 467.967 169.889V169.889Z" fill="white"/>
<path d="M443.938 162.519C444.001 162.486 443.527 162.457 442.648 162.433V148.333H400.056V149.468H380.883C378.635 149.47 376.48 149.897 374.89 150.657C373.3 151.416 372.406 152.446 372.403 153.52V159.352C372.405 160.427 373.299 161.457 374.889 162.217C376.479 162.976 378.635 163.404 380.883 163.404L400.533 163.417L409.162 163.423H409.755L418.39 163.429L442.506 163.444H444.584C444.887 163.281 443.648 162.683 443.938 162.519Z" fill="#3F3D56"/>
<path d="M444.396 162.781C442.988 163.763 441.846 163.726 440.847 163.091C440.322 162.726 439.899 162.33 439.589 161.912C436.554 158.193 434.568 149.661 428.844 152.644C427.714 153.234 426.566 153.818 425.415 154.396C423.273 155.472 421.037 156.64 418.821 157.672C418.82 157.675 418.872 157.56 418.864 157.563C417.771 158.074 418.594 153.655 418.162 152.411C418.07 152.143 417.92 152.023 417.681 152.13C417.663 152.009 417.651 151.889 417.653 151.767C417.65 151.574 417.67 151.382 417.714 151.192C417.749 151.016 417.799 150.838 417.869 150.66L436.582 102.841C437.075 101.588 438.391 100.443 440.339 99.5725C442.287 98.7017 444.764 98.1502 447.412 97.9983C448.667 97.9316 449.935 97.953 451.176 98.0616L454.582 98.366C455.927 98.4861 457.221 98.712 458.411 99.0345L458.417 99.035C460.692 99.6483 462.509 100.586 463.615 101.717C464.72 102.848 465.058 104.116 464.582 105.343L444.396 162.781Z" fill="#3F3D56"/>
<path d="M284.598 190.02L275.812 188.012L287.881 170.463L300.847 173.427L284.598 190.02Z" fill="#A0616A"/>
<path d="M343.497 187.191C342.858 187.382 342.219 187.57 341.574 187.758C340.29 188.134 338.993 188.504 337.695 188.868C337.044 189.05 336.385 189.232 335.734 189.411V189.42L335.695 189.423L335.682 189.426L334.688 189.544L333.262 187.743L332.604 186.913L331.675 185.738L329.971 183.589L321.001 172.271L334.946 170.627L335.469 171.648H335.476L335.734 172.154L340.606 181.596L341.6 183.527L341.632 183.586L342.232 184.739L342.749 185.738L343.323 186.854L343.497 187.191Z" fill="#A0616A"/>
<path d="M426.689 147.445C425.805 148.124 424.901 148.799 423.991 149.468C422.3 150.714 420.564 151.942 418.783 153.15C418.783 153.154 418.777 153.154 418.771 153.157C417.731 153.617 416.583 154.017 415.35 154.35C415.299 154.369 415.24 154.381 415.189 154.396C414.281 154.636 413.314 154.822 412.311 154.948C411.949 154.991 411.582 155.035 411.22 155.078C409.917 155.226 408.626 155.352 407.342 155.463C405.057 155.658 402.798 155.796 400.553 155.883C400.372 155.892 400.191 155.898 400.011 155.904C390.776 156.228 381.786 155.707 372.403 154.853C367.77 154.433 363.04 153.931 358.141 153.409C356.541 153.237 354.934 153.067 353.308 152.898C353.185 152.885 353.056 152.87 352.927 152.857C350.604 152.614 348.242 152.373 345.822 152.136C342.776 151.837 339.633 151.547 336.368 151.272L336.6 153.471C336.794 155.163 337.529 156.83 338.781 158.414C340.175 160.364 341.279 161.905 338.949 165.116L337.826 166.67C338.408 167.442 338.608 168.268 338.41 169.082C338.212 169.897 337.621 170.679 336.684 171.367L336.458 171.53L345.822 182.851L346.429 183.585H341.634L335.735 183.588H325.739L311.316 169.76L310.626 169.1V169.066L312.116 142.493C312.136 142.258 312.174 142.021 312.239 141.786C312.502 140.721 313.206 139.691 314.311 138.757C315.415 137.823 316.898 137.004 318.673 136.346C320.373 135.711 322.321 135.244 324.403 134.972C326.484 134.7 328.659 134.628 330.799 134.761L335.735 135.067L345.822 135.69L352.927 136.131L353.069 136.14L374.023 137.435L375.527 134.505L375.804 134.456L384.626 132.911L415.137 127.567L415.215 127.554L417.222 127.203L417.46 127.388C417.531 127.443 417.602 127.499 417.667 127.554C419.651 129.254 421.266 131.046 422.488 132.902C424.542 135.934 426.233 139.02 427.554 142.144C427.611 142.28 427.663 142.403 427.708 142.514L427.728 142.548C427.747 142.601 427.76 142.634 427.766 142.644C428.47 144.044 427.979 145.752 426.689 147.445Z" fill="#2F2E41"/>
<path d="M427.977 137.652C427.88 137.455 427.757 137.254 427.628 137.06C426.604 135.588 425.41 134.145 424.053 132.736C422.53 131.133 420.704 129.415 418.529 127.556C417.477 126.655 416.346 125.719 415.135 124.746C414.528 124.259 413.898 123.762 413.244 123.257C413.218 123.233 413.19 123.211 413.16 123.189L412.973 123.041L382.784 124.971L371.542 125.69L370.871 128.367L370.71 129.03C370.703 129.03 370.703 129.03 370.71 129.033L370.258 130.84V130.843L369.658 133.23L369.606 133.227L352.925 132.194L335.733 131.13L326.498 130.559C324.358 130.426 322.184 130.497 320.102 130.77C318.02 131.042 316.073 131.509 314.372 132.144C312.598 132.802 311.116 133.621 310.011 134.555C308.906 135.489 308.202 136.519 307.938 137.584C307.88 137.8 307.841 138.022 307.822 138.241L299.11 148.106C293.897 154.006 290.577 160.248 289.262 166.622L282.874 176.382L283.783 176.422L297.323 177.024L300.898 177.184L308.771 171.692C309.668 171.066 310.52 170.421 311.313 169.761C312.62 168.683 313.782 167.567 314.792 166.418L331.822 147.052C333.139 147.16 334.442 147.262 335.733 147.36C341.702 147.823 347.433 148.2 352.925 148.492C370.781 149.445 386.243 149.519 400.008 148.711C403.874 148.486 407.61 148.19 411.217 147.823C412.54 147.69 413.846 147.547 415.135 147.394C415.438 147.36 415.735 147.326 416.032 147.289C418.699 146.96 421.151 146.317 423.163 145.419C425.175 144.52 426.684 143.395 427.551 142.145C428.586 140.698 428.733 139.139 427.977 137.652Z" fill="#2F2E41"/>
<path d="M287.404 187.154L277.899 184.977L276.408 184.635L274.027 187.429L257.403 189.177C256.581 189.263 255.838 189.473 255.283 189.775C254.728 190.077 254.389 190.456 254.317 190.857C254.245 191.258 254.443 191.659 254.882 192.002C255.321 192.345 255.978 192.612 256.757 192.764L273.001 195.931L278.157 193.714L276.892 196.689L283.01 197.883L289.715 187.685L287.404 187.154Z" fill="#2F2E41"/>
<path d="M345.821 182.851L346.427 183.585H345.821V182.851Z" fill="#2F2E41"/>
<path d="M232.243 129.479C232.243 127.826 231.082 126.484 229.656 126.481H122.214C120.781 126.484 119.626 127.826 119.62 129.479V197.522C119.62 197.675 119.5 197.823 119.285 197.937C119.069 198.051 118.772 198.122 118.453 198.137C117.409 198.184 116.366 198.229 115.322 198.27C115.296 198.27 115.27 198.273 115.245 198.273C114.677 198.298 114.109 198.316 113.541 198.338H113.534C113.242 198.08 112.954 197.82 112.668 197.557C112.572 197.469 112.521 197.37 112.521 197.271V125.59C112.521 125.134 112.56 124.674 112.625 124.221C112.717 123.598 112.878 122.979 113.109 122.364C114.199 119.499 116.664 117.56 119.465 117.553H232.398C232.807 117.555 233.211 117.596 233.586 117.674C234.136 117.79 234.634 117.957 235.051 118.164C235.617 118.445 236.101 118.762 236.49 119.105C237.871 120.267 238.858 122 239.207 124.017C239.207 124.036 239.213 124.054 239.213 124.073C239.303 124.572 239.349 125.081 239.342 125.59L239.432 132.199L239.491 136.14L239.665 148.506L239.729 152.897L240.013 197.983C240.013 198.147 239.877 198.304 239.635 198.42C239.393 198.535 239.065 198.6 238.723 198.6H233.534C233.192 198.6 232.864 198.535 232.621 198.42C232.379 198.304 232.243 198.147 232.243 197.983V129.479Z" fill="#3F3D56"/>
<path d="M155.655 99.2199L148.182 114.934L143.406 117.433H139.961L154.161 88.8628L154.863 93.7165V93.7198L155.655 99.2199Z" fill="#3F3D56"/>
<path d="M191.622 115.279L147.779 115.146L143.887 115.134L141.112 115.125L137.879 115.115H137.853C137.384 115.116 136.935 115.204 136.601 115.362L131.142 117.971C131.021 118.028 130.923 118.095 130.851 118.168C130.817 118.189 130.789 118.212 130.768 118.236C130.649 118.367 130.601 118.51 130.625 118.653C130.65 118.795 130.748 118.932 130.91 119.052C131.072 119.172 131.293 119.272 131.554 119.341C131.815 119.411 132.108 119.448 132.407 119.451H189.203C189.543 119.451 189.877 119.404 190.165 119.317C190.452 119.229 190.683 119.105 190.829 118.958L191.274 118.495L192.19 117.555L193.229 116.494C193.34 116.381 193.398 116.258 193.397 116.133C193.395 115.908 193.207 115.692 192.875 115.532C192.543 115.373 192.094 115.282 191.622 115.279Z" fill="#3F3D56"/>
<path opacity="0.17" d="M191.275 118.494L190.827 118.959C190.681 119.105 190.452 119.23 190.165 119.317C189.878 119.404 189.545 119.451 189.205 119.452H132.407C132.109 119.449 131.816 119.411 131.555 119.342C131.294 119.272 131.073 119.173 130.911 119.053C130.749 118.933 130.652 118.796 130.627 118.654C130.603 118.511 130.652 118.368 130.771 118.237C130.791 118.213 130.818 118.19 130.853 118.169L191.275 118.494Z" fill="black"/>
<path opacity="0.17" d="M154.863 93.7165V93.7198L142.703 117.433H139.961L154.161 88.8628L154.863 93.7165Z" fill="black"/>
<path d="M169.785 98.0616L152.574 35.4871C152.511 35.2525 152.256 35.0396 151.864 34.895L140.016 27.8083L138.951 27.4166C138.557 27.2739 138.061 27.2108 137.57 27.2408L135.789 27.355C135.298 27.3852 134.852 27.5075 134.549 27.6949C134.247 27.8822 134.113 28.1194 134.176 28.3541L152.013 93.1891V93.1921L153.103 97.158L154.401 101.867V101.873L156.414 109.2C156.446 109.326 156.535 109.447 156.674 109.554C156.813 109.662 157 109.754 157.221 109.823C157.438 109.895 157.684 109.943 157.943 109.966C158.203 109.988 158.469 109.984 158.724 109.953L159.854 109.817C160.286 109.764 160.666 109.64 160.925 109.466L161.428 109.123L161.661 108.963L169.456 98.6937C169.73 98.5106 169.847 98.2846 169.785 98.0616Z" fill="#3F3D56"/>
<path opacity="0.17" d="M140.013 27.8086L161.662 108.964L161.427 109.123L160.926 109.465C160.667 109.639 160.287 109.763 159.854 109.816L158.723 109.952C158.467 109.983 158.201 109.987 157.941 109.965C157.681 109.942 157.434 109.894 157.216 109.823C156.998 109.752 156.814 109.66 156.676 109.553C156.537 109.445 156.448 109.325 156.413 109.2L134.178 28.3552C134.114 28.1204 134.247 27.883 134.549 27.6952C134.851 27.5074 135.296 27.3845 135.787 27.3536L137.573 27.2415C137.815 27.2258 138.062 27.2334 138.298 27.2637C138.534 27.294 138.755 27.3465 138.948 27.418L140.013 27.8086Z" fill="black"/>
<path d="M140.651 30.1296L152.14 37.966L165.795 87.6164L158.392 94.6349L140.651 30.1296Z" fill="#8982FF"/>
<path d="M387.561 198.084L379.682 198.154L401.58 161.802L409.459 162.965L387.561 198.084Z" fill="#3F3D56"/>
<path d="M439.234 198.153L431.361 198.082L409.755 163.423L409.458 162.966L414.511 162.22C415.511 162.229 416.55 162.235 417.621 162.242L418.389 163.429L439.234 198.153Z" fill="#3F3D56"/>
<path d="M342.511 183.742L332.55 185.391L330.987 185.649L333.409 188.435L324.171 195.267C323.714 195.605 323.494 196.003 323.545 196.405C323.595 196.806 323.913 197.189 324.452 197.498C324.991 197.807 325.722 198.025 326.539 198.122C327.356 198.218 328.216 198.187 328.993 198.033L345.199 194.821L345.598 191.512L349.081 194.052L355.185 192.843L344.933 183.342L342.511 183.742Z" fill="#2F2E41"/>
<path d="M282.058 81.7054C282.53 82.1451 283.198 82.53 284.016 82.8329C284.833 83.1358 285.779 83.3494 286.788 83.4587C287.796 83.5679 288.843 83.5702 289.853 83.4653C290.864 83.3603 291.814 83.1508 292.637 82.8514L313.581 89.4956L313.621 83.2529L293.726 77.9005C292.582 77.2733 290.996 76.8684 289.269 76.7626C287.542 76.6568 285.794 76.8574 284.355 77.3264C282.917 77.7954 281.889 78.5002 281.465 79.3073C281.042 80.1144 281.253 80.9677 282.058 81.7054V81.7054Z" fill="#A0616A"/>
<path d="M297.705 84.591L307.476 79.2785L347.265 90.5663L400.009 88.258C402.616 88.144 405.244 88.3056 407.705 88.7314C410.167 89.1572 412.402 89.8368 414.253 90.7218C416.103 91.6069 417.523 92.6758 418.412 93.8525C419.301 95.0293 419.636 96.2852 419.395 97.5309C418.954 99.7808 416.663 101.855 413.026 103.299C409.388 104.743 404.7 105.438 399.991 105.232L340.589 102.605L297.705 84.591Z" fill="#E6E6E6"/>
<path d="M420.123 84.6729L420.032 84.6179L395.102 83.4424L378.259 97.6208C363.78 106.079 374.301 111.913 374.931 112.78L369.905 123.853L371.032 127.559L371.594 128.66L428.962 142.985L417.171 124.214L428.684 107.095C431.236 103.31 431.791 99.2824 430.297 95.3703C428.803 91.4582 425.308 87.7833 420.123 84.6729Z" fill="#E6E6E6"/>
<path d="M447.437 72.1961C447.45 72.3472 447.456 72.4983 447.456 72.6463C447.451 74.2796 446.636 75.8891 445.08 77.3433C443.524 78.7974 441.27 80.055 438.502 81.0132C435.734 81.9714 432.531 82.603 429.154 82.8565C425.778 83.1099 422.324 82.978 419.074 82.4715L415.093 81.8516C415.06 81.8454 415.022 81.8424 414.989 81.8362L408.426 80.8124C408.405 80.6798 408.409 80.5467 408.439 80.4145C398.65 78.4162 412.182 71.8506 415.544 66.9196C416.067 66.1517 398.095 66.7253 398.947 66.0685C398.759 66.0222 398.572 65.9759 398.398 65.9297C401.434 63.6402 405.922 61.8744 411.207 60.8902C416.491 59.906 422.296 59.7549 427.773 60.4589C427.916 60.4743 428.064 60.4959 428.206 60.5144C440.958 60.6655 447.656 64.912 447.656 70.426C447.656 71.0175 447.582 71.6086 447.437 72.1961Z" fill="#2F2E41"/>
<path d="M436.387 74.3672C434.676 76.8711 430.954 78.9479 426.04 80.141C421.125 81.334 415.421 81.5456 410.18 80.7292C409.586 80.6367 409.006 80.5318 408.438 80.4146C403.668 79.4378 399.836 77.6435 397.695 75.3848C395.554 73.1261 395.258 70.5663 396.867 68.2087C397.377 67.458 398.075 66.7395 398.945 66.0685C401.617 64.0009 405.782 62.4731 410.652 61.7744C415.523 61.0756 420.76 61.2544 425.373 62.2768C429.986 63.2993 433.655 65.0945 435.685 67.3225C437.714 69.5506 437.964 72.057 436.387 74.3672Z" fill="#A0616A"/>
<path d="M415.093 81.8516C415.061 81.8455 415.022 81.8423 414.99 81.8362L408.427 80.8124C408.405 80.6799 408.41 80.5466 408.44 80.4146C408.635 79.382 410.152 78.3006 412.188 77.1332C413.499 76.3866 414.41 75.4989 414.843 74.5464C415.276 73.594 415.219 72.6056 414.674 71.6663C414.13 70.727 413.116 69.865 411.72 69.1547C410.323 68.4444 408.586 67.907 406.658 67.5889C406.602 67.5797 406.547 67.5703 406.491 67.561C403.906 67.1485 401.385 66.6498 398.947 66.0684C398.76 66.0222 398.573 65.9759 398.398 65.9297C396.759 65.4979 395.572 65.0662 395.049 64.653C395.83 63.5074 397.077 62.4466 398.716 61.5312C400.356 60.6158 402.356 59.8637 404.604 59.3178C406.852 58.772 409.303 58.4431 411.817 58.35C414.331 58.2569 416.858 58.4013 419.255 58.7751L423.063 59.3672C427.865 60.113 431.855 61.7359 434.163 63.882C436.847 64.801 438.964 66.1517 440.622 67.7461C448.96 75.7456 432.865 84.5778 415.093 81.8516Z" fill="#2F2E41"/>
<path d="M427.657 130.231C427.657 130.774 427.313 131.303 426.67 131.75C426.027 132.197 425.115 132.541 424.056 132.735C423.553 132.827 423.025 132.883 422.488 132.902C422.346 132.908 422.197 132.911 422.055 132.911H411.22V158.032C411.059 158.134 410.891 158.236 410.723 158.337C409.794 158.905 408.852 159.472 407.897 160.03C407.69 160.154 407.484 160.274 407.284 160.394C406.967 160.576 406.658 160.758 406.348 160.937C406.238 160.999 406.135 161.057 406.032 161.119C405.503 161.421 404.973 161.724 404.431 162.026V162.029C404.425 162.032 404.425 162.032 404.425 162.035L404.154 162.183C403.722 162.427 403.289 162.673 402.844 162.917C402.239 162.756 401.704 162.542 401.269 162.285C400.999 162.13 400.769 161.96 400.585 161.779C400.579 161.776 400.579 161.773 400.572 161.767C400.565 161.76 400.558 161.752 400.553 161.745C400.191 161.384 400.005 160.989 400.011 160.589V132.911H375.72C375.003 132.913 374.293 132.847 373.63 132.717C372.793 132.557 372.05 132.303 371.463 131.977C370.877 131.65 370.464 131.261 370.261 130.842V130.839C369.958 130.23 370.119 129.589 370.713 129.032C370.706 129.028 370.706 129.028 370.713 129.028C370.963 128.785 371.297 128.563 371.7 128.372V128.369C371.7 128.365 371.7 128.365 371.706 128.362C372.229 128.107 372.854 127.904 373.543 127.765C374.232 127.626 374.973 127.555 375.72 127.554H422.055C423.541 127.555 424.965 127.837 426.015 128.339C427.066 128.841 427.656 129.521 427.657 130.231Z" fill="#3F3D56"/>
<path d="M458.51 78.3829C456.243 78.1803 453.915 78.193 451.658 78.4204C449.402 78.6478 447.261 79.0854 445.358 79.7082C443.455 80.331 441.827 81.1268 440.568 82.0502C439.309 82.9735 438.443 84.0064 438.019 85.0897V85.0897C437.27 87.0035 437.938 88.982 439.906 90.6867C441.874 92.3912 445.021 93.7159 448.808 94.4338L443.528 107.926L454.547 108.911L466.224 79.0721L458.51 78.3829Z" fill="#3F3D56"/>
<path d="M442.646 68.4616C447.636 68.4616 451.681 66.5287 451.681 64.1442C451.681 61.7598 447.636 59.8268 442.646 59.8268C437.657 59.8268 433.612 61.7598 433.612 64.1442C433.612 66.5287 437.657 68.4616 442.646 68.4616Z" fill="#2F2E41"/>
<path d="M547.968 76.5408C544.048 77.1657 539.856 77.2722 535.725 77.3063C523.702 77.4056 511.375 76.9022 500.432 74.5198C489.49 72.1375 480.07 67.6101 477.637 61.9827C476.589 59.5573 476.712 56.8559 473.514 54.9072C469.718 52.5943 462.09 52.2791 456.776 53.7595C451.462 55.2398 448.359 58.1207 447.457 61.0281L445.317 62.6911C445.367 63.7618 447.791 64.4738 450.022 64.5741C452.253 64.6745 454.497 64.3808 456.731 64.4602C461.629 64.6342 465.622 66.6362 467.05 68.8817C468.477 71.1273 467.79 73.5562 466.568 75.8293C465.347 78.1024 463.601 80.32 462.904 82.6431C462.206 84.9662 462.68 87.4874 465.54 89.3952C467.687 90.8272 470.958 91.7765 474.284 92.5358C482.336 94.3741 491.157 95.3156 500.081 95.2893C509.004 95.263 517.8 94.2696 525.804 92.384C533.808 90.4985 540.813 87.7697 546.291 84.4032C551.769 81.0366 555.578 77.1201 557.43 72.9484C555.557 74.7088 551.888 75.9158 547.968 76.5408Z" fill="#2F2E41"/>
<path d="M374.509 167.836H356.108C355.095 167.836 354.118 167.661 353.354 167.344C352.59 167.027 352.091 166.588 351.949 166.109C350.812 162.114 350.812 158.063 351.949 154.068C352.089 153.595 352.578 153.161 353.327 152.844C354.076 152.528 355.037 152.35 356.037 152.341C361.827 151.101 368.062 151.101 374.572 152.341C375.179 152.345 375.776 152.412 376.322 152.538C376.868 152.664 377.35 152.845 377.734 153.07C378.134 153.303 378.421 153.576 378.572 153.869C378.724 154.162 378.738 154.467 378.611 154.763C377.133 158.278 377.133 161.899 378.611 165.414C378.738 165.71 378.724 166.015 378.572 166.308C378.421 166.601 378.134 166.874 377.734 167.107C377.344 167.336 376.851 167.52 376.294 167.646C375.736 167.772 375.126 167.837 374.509 167.836Z" fill="#8982FF"/>
<path d="M372.582 156.932H357.094C356.837 156.932 356.591 156.883 356.409 156.797C356.228 156.71 356.126 156.592 356.126 156.469C356.126 156.347 356.228 156.229 356.409 156.142C356.591 156.056 356.837 156.007 357.094 156.007H372.582C372.838 156.007 373.085 156.056 373.266 156.142C373.448 156.229 373.55 156.347 373.55 156.469C373.55 156.592 373.448 156.71 373.266 156.797C373.085 156.883 372.838 156.932 372.582 156.932Z" fill="white"/>
<path d="M372.582 160.633H357.094C356.837 160.633 356.591 160.584 356.409 160.497C356.228 160.41 356.126 160.293 356.126 160.17C356.126 160.047 356.228 159.93 356.409 159.843C356.591 159.756 356.837 159.708 357.094 159.708H372.582C372.838 159.708 373.085 159.756 373.266 159.843C373.448 159.93 373.55 160.047 373.55 160.17C373.55 160.293 373.448 160.41 373.266 160.497C373.085 160.584 372.838 160.633 372.582 160.633Z" fill="white"/>
<path d="M372.582 164.333H357.094C356.837 164.333 356.591 164.285 356.409 164.198C356.228 164.111 356.126 163.993 356.126 163.871C356.126 163.748 356.228 163.63 356.409 163.544C356.591 163.457 356.837 163.408 357.094 163.408H372.582C372.838 163.408 373.085 163.457 373.266 163.544C373.448 163.63 373.55 163.748 373.55 163.871C373.55 163.993 373.448 164.111 373.266 164.198C373.085 164.285 372.838 164.333 372.582 164.333Z" fill="white"/>
<path d="M154.62 69.8184V69.8175C154.639 69.7425 154.719 69.6741 154.843 69.6269C154.967 69.5797 155.124 69.5574 155.281 69.5648L254.844 69.6916C255.001 69.6846 255.158 69.7072 255.28 69.7545C255.403 69.8019 255.482 69.8703 255.501 69.9451V69.946C255.482 70.021 255.401 70.0894 255.278 70.1366C255.154 70.1838 254.997 70.2061 254.839 70.1986L155.277 70.0719C155.12 70.0789 154.963 70.0563 154.84 70.0089C154.718 69.9616 154.638 69.8932 154.62 69.8184Z" fill="#3F3D56"/>
<path d="M180.948 99.1213L176.72 101.343C176.524 101.422 176.285 101.472 176.031 101.488C175.777 101.504 175.519 101.484 175.287 101.432C174.586 101.313 173.962 101.109 173.478 100.839C170.457 99.2008 167.065 97.7271 163.365 96.4454C162.757 96.2406 162.272 95.9632 161.958 95.6409C161.831 95.5372 161.767 95.4186 161.772 95.2984C161.778 95.1783 161.853 95.0612 161.99 94.9603C162.032 93.7446 163.465 92.9914 166.25 92.7212C166.738 92.4783 167.841 92.5706 168.83 92.9391C172.897 94.4554 176.719 96.116 180.263 97.9067C181.134 98.3466 181.428 98.8688 180.948 99.1213Z" fill="#8982FF"/>
<path d="M170.083 94.3384L166.524 96.2086C166.401 96.2732 166.105 96.2401 165.863 96.1347C165.62 96.0293 165.523 95.8915 165.646 95.827L169.204 93.9568C169.327 93.8922 169.623 93.9253 169.866 94.0307C170.108 94.1361 170.205 94.2739 170.083 94.3384Z" fill="white"/>
<path d="M173.597 95.865L170.038 97.7352C169.916 97.7997 169.619 97.7666 169.377 97.6612C169.134 97.5558 169.037 97.4181 169.16 97.3535L172.718 95.4833C172.841 95.4188 173.137 95.4518 173.38 95.5573C173.622 95.6627 173.719 95.8004 173.597 95.865Z" fill="white"/>
<path d="M177.11 97.3916L173.551 99.2618C173.429 99.3263 173.132 99.2932 172.89 99.1878C172.647 99.0824 172.55 98.9447 172.673 98.8801L176.231 97.0099C176.354 96.9453 176.65 96.9784 176.893 97.0839C177.135 97.1893 177.232 97.327 177.11 97.3916Z" fill="white"/>
<path d="M558 198.331C558 198.379 557.98 198.427 557.942 198.471C557.905 198.516 557.847 198.557 557.775 198.591C557.705 198.625 557.619 198.652 557.526 198.67C557.432 198.689 557.333 198.698 557.233 198.698H0.767948C0.564276 198.698 0.368944 198.659 0.224926 198.59C0.0809072 198.522 0 198.428 0 198.331C0 198.234 0.0809072 198.14 0.224926 198.071C0.368944 198.003 0.564276 197.964 0.767948 197.964H557.233C557.333 197.964 557.432 197.973 557.526 197.992C557.619 198.01 557.705 198.037 557.775 198.071C557.847 198.105 557.905 198.146 557.942 198.19C557.98 198.235 558 198.283 558 198.331Z" fill="#CCCCCC"/>
<path d="M379.899 156.596C380.79 156.344 381.554 156.003 382.138 155.595C382.723 155.187 383.113 154.723 383.281 154.235C383.45 153.748 383.392 153.248 383.113 152.773C382.834 152.297 382.34 151.856 381.666 151.481L394.303 141.096L381.26 141.447L371.259 151.255C370.017 151.838 369.265 152.619 369.146 153.449C369.028 154.279 369.55 155.101 370.615 155.759C371.681 156.418 373.214 156.866 374.925 157.02C376.636 157.175 378.406 157.023 379.899 156.596Z" fill="#A0616A"/>
<path d="M384.998 148.96L373.321 144.614L394.54 124.964L386.589 99.9405C386.196 98.7036 386.378 97.4405 387.121 96.2409C387.864 95.0414 389.151 93.9347 390.89 92.9995C392.63 92.0644 394.778 91.3236 397.184 90.8299C399.589 90.3362 402.193 90.1016 404.809 90.1427C409.535 90.2196 414.004 91.1892 417.236 92.8388C420.468 94.4884 422.198 96.6833 422.048 98.9418L420.083 127.434L384.998 148.96Z" fill="#E6E6E6"/>
<path d="M283.731 87.0439H244.301C243.244 87.0433 242.231 86.8424 241.484 86.4853C240.737 86.1284 240.316 85.6442 240.315 85.1392V60.1896C240.316 59.6846 240.737 59.2005 241.484 58.8434C242.231 58.4863 243.244 58.2855 244.301 58.2849H283.731C284.788 58.2855 285.801 58.4863 286.548 58.8434C287.295 59.2005 287.716 59.6846 287.717 60.1896V85.1392C287.716 85.6442 287.295 86.1284 286.548 86.4854C285.801 86.8424 284.788 87.0433 283.731 87.0439Z" fill="#E6E6E6"/>
<path d="M280.959 85.4564H247.072C246.134 85.4559 245.234 85.2776 244.571 84.9605C243.907 84.6436 243.534 84.2137 243.533 83.7653V61.5635C243.534 61.1151 243.907 60.6853 244.571 60.3682C245.234 60.0512 246.134 59.8729 247.072 59.8724H280.959C281.897 59.8729 282.797 60.0512 283.46 60.3682C284.124 60.6853 284.497 61.1151 284.498 61.5635V83.7653C284.497 84.2137 284.124 84.6436 283.46 84.9605C282.797 85.2776 281.897 85.4559 280.959 85.4564Z" fill="white"/>
<path d="M277.579 64.0915H250.453C250.336 64.0917 250.221 64.0809 250.114 64.0597C250.006 64.0385 249.908 64.0074 249.826 63.9681C249.743 63.9288 249.678 63.8822 249.633 63.8308C249.589 63.7795 249.566 63.7244 249.566 63.6688C249.566 63.6132 249.589 63.5581 249.633 63.5067C249.678 63.4554 249.743 63.4087 249.826 63.3694C249.908 63.3302 250.006 63.299 250.114 63.2779C250.221 63.2567 250.336 63.2459 250.453 63.246H277.579C277.695 63.2459 277.81 63.2567 277.918 63.2779C278.026 63.299 278.124 63.3302 278.206 63.3694C278.288 63.4087 278.354 63.4554 278.398 63.5067C278.443 63.5581 278.466 63.6132 278.466 63.6688C278.466 63.7244 278.443 63.7795 278.398 63.8308C278.354 63.8822 278.288 63.9288 278.206 63.9681C278.124 64.0074 278.026 64.0385 277.918 64.0597C277.81 64.0809 277.695 64.0917 277.579 64.0915Z" fill="#8982FF"/>
<path d="M277.579 65.7621H250.453C250.219 65.7621 249.994 65.7175 249.828 65.6382C249.662 65.559 249.569 65.4514 249.569 65.3393C249.569 65.2272 249.662 65.1196 249.828 65.0403C249.994 64.961 250.219 64.9165 250.453 64.9165H277.579C277.696 64.9165 277.811 64.9274 277.918 64.9487C278.025 64.9699 278.123 65.0011 278.205 65.0403C278.287 65.0796 278.352 65.1262 278.397 65.1775C278.441 65.2288 278.464 65.2838 278.464 65.3393C278.464 65.3948 278.441 65.4498 278.397 65.5011C278.352 65.5524 278.287 65.599 278.205 65.6382C278.123 65.6775 278.025 65.7086 277.918 65.7299C277.811 65.7511 277.696 65.7621 277.579 65.7621Z" fill="#8982FF"/>
<path d="M262.212 67.4325H250.453C250.219 67.4325 249.994 67.388 249.828 67.3087C249.662 67.2294 249.569 67.1219 249.569 67.0098C249.569 66.8976 249.662 66.7901 249.828 66.7108C249.994 66.6315 250.219 66.587 250.453 66.587H262.212C262.446 66.587 262.672 66.6315 262.837 66.7108C263.003 66.7901 263.097 66.8976 263.097 67.0098C263.097 67.1219 263.003 67.2294 262.837 67.3087C262.672 67.388 262.446 67.4325 262.212 67.4325Z" fill="#8982FF"/>
<path d="M277.579 70.9312H250.453C250.336 70.9314 250.221 70.9206 250.114 70.8994C250.006 70.8782 249.908 70.8471 249.826 70.8078C249.743 70.7686 249.678 70.7219 249.633 70.6705C249.589 70.6192 249.566 70.5641 249.566 70.5085C249.566 70.4529 249.589 70.3978 249.633 70.3464C249.678 70.2951 249.743 70.2484 249.826 70.2092C249.908 70.1699 250.006 70.1388 250.114 70.1176C250.221 70.0964 250.336 70.0856 250.453 70.0857H277.579C277.695 70.0856 277.81 70.0964 277.918 70.1176C278.026 70.1388 278.124 70.1699 278.206 70.2092C278.288 70.2484 278.354 70.2951 278.398 70.3464C278.443 70.3978 278.466 70.4529 278.466 70.5085C278.466 70.5641 278.443 70.6192 278.398 70.6705C278.354 70.7219 278.288 70.7686 278.206 70.8078C278.124 70.8471 278.026 70.8782 277.918 70.8994C277.81 70.9206 277.695 70.9314 277.579 70.9312Z" fill="#E4E4E4"/>
<path d="M277.579 72.6019H250.453C250.336 72.602 250.221 72.5912 250.114 72.57C250.006 72.5488 249.908 72.5177 249.826 72.4784C249.743 72.4392 249.678 72.3925 249.633 72.3411C249.589 72.2898 249.566 72.2347 249.566 72.1791C249.566 72.1235 249.589 72.0684 249.633 72.017C249.678 71.9657 249.743 71.919 249.826 71.8797C249.908 71.8405 250.006 71.8093 250.114 71.7882C250.221 71.767 250.336 71.7562 250.453 71.7563H277.579C277.695 71.7562 277.81 71.767 277.918 71.7882C278.026 71.8093 278.124 71.8405 278.206 71.8797C278.288 71.919 278.354 71.9657 278.398 72.017C278.443 72.0684 278.466 72.1235 278.466 72.1791C278.466 72.2347 278.443 72.2898 278.398 72.3411C278.354 72.3925 278.288 72.4392 278.206 72.4784C278.124 72.5177 278.026 72.5488 277.918 72.57C277.81 72.5912 277.695 72.602 277.579 72.6019Z" fill="#E4E4E4"/>
<path d="M262.212 74.2723H250.453C250.219 74.2723 249.994 74.2277 249.828 74.1484C249.662 74.0691 249.569 73.9616 249.569 73.8495C249.569 73.7373 249.662 73.6298 249.828 73.5505C249.994 73.4712 250.219 73.4267 250.453 73.4267H262.212C262.446 73.4267 262.672 73.4712 262.837 73.5505C263.003 73.6298 263.097 73.7373 263.097 73.8495C263.097 73.9616 263.003 74.0691 262.837 74.1484C262.672 74.2277 262.446 74.2723 262.212 74.2723Z" fill="#E4E4E4"/>
<path d="M277.579 77.7711H250.453C250.219 77.7711 249.994 77.7265 249.828 77.6473C249.662 77.568 249.569 77.4604 249.569 77.3483C249.569 77.2362 249.662 77.1287 249.828 77.0494C249.994 76.9701 250.219 76.9256 250.453 76.9256H277.579C277.814 76.9256 278.039 76.9701 278.205 77.0494C278.371 77.1287 278.464 77.2362 278.464 77.3483C278.464 77.4604 278.371 77.568 278.205 77.6473C278.039 77.7265 277.814 77.7711 277.579 77.7711Z" fill="#E4E4E4"/>
<path d="M277.579 79.4415H250.453C250.219 79.4415 249.994 79.3969 249.828 79.3176C249.662 79.2384 249.569 79.1308 249.569 79.0187C249.569 78.9066 249.662 78.799 249.828 78.7197C249.994 78.6405 250.219 78.5959 250.453 78.5959H277.579C277.814 78.5959 278.039 78.6405 278.205 78.7197C278.371 78.799 278.464 78.9066 278.464 79.0187C278.464 79.1308 278.371 79.2384 278.205 79.3176C278.039 79.3969 277.814 79.4415 277.579 79.4415Z" fill="#E4E4E4"/>
<path d="M262.212 81.1121H250.453C250.219 81.1121 249.994 81.0675 249.828 80.9882C249.662 80.909 249.569 80.8014 249.569 80.6893C249.569 80.5772 249.662 80.4696 249.828 80.3903C249.994 80.3111 250.219 80.2665 250.453 80.2665H262.212C262.446 80.2665 262.672 80.3111 262.837 80.3903C263.003 80.4696 263.097 80.5772 263.097 80.6893C263.097 80.8014 263.003 80.909 262.837 80.9882C262.672 81.0675 262.446 81.1121 262.212 81.1121Z" fill="#E4E4E4"/>
<path d="M149.553 53.8007L255.333 10.5641H255.501V11.1988H255.823L150.417 54.2831L149.553 53.8007Z" fill="#2F2E41"/>
<path d="M222.587 103.454H173.949C173.189 103.455 172.461 103.599 171.923 103.856C171.386 104.113 171.084 104.461 171.083 104.824V119.295C171.084 119.658 171.386 120.006 171.923 120.263C172.461 120.519 173.189 120.664 173.949 120.664H222.587C223.347 120.664 224.075 120.519 224.612 120.263C225.15 120.006 225.452 119.658 225.453 119.295V104.824C225.452 104.461 225.15 104.113 224.612 103.856C224.075 103.599 223.347 103.455 222.587 103.454Z" fill="white"/>
<path d="M222.587 103.454H173.949C173.189 103.455 172.461 103.599 171.923 103.856C171.386 104.113 171.084 104.461 171.083 104.824V119.295C171.084 119.658 171.386 120.006 171.923 120.263C172.461 120.519 173.189 120.664 173.949 120.664H222.587C223.347 120.664 224.075 120.519 224.612 120.263C225.15 120.006 225.452 119.658 225.453 119.295V104.824C225.452 104.461 225.15 104.113 224.612 103.856C224.075 103.599 223.347 103.455 222.587 103.454ZM223.527 113.849C223.516 115.322 222.296 116.734 220.131 117.783C217.965 118.831 215.026 119.432 211.943 119.457C207.008 119.488 214.674 119.5 208.722 119.5C195.111 119.5 180.919 119.438 175.624 119.397C174.927 119.391 174.264 119.254 173.775 119.016C173.286 118.779 173.011 118.46 173.009 118.127V104.825C173.009 104.706 173.108 104.591 173.284 104.507C173.46 104.423 173.699 104.375 173.949 104.375H222.585C222.834 104.375 223.074 104.422 223.25 104.506C223.427 104.59 223.526 104.705 223.527 104.824V113.849Z" fill="#CACACA"/>
<path d="M216.169 112.69H179.113C178.785 112.69 178.465 112.641 178.197 112.551C177.929 112.461 177.726 112.333 177.616 112.185L171.892 104.512C171.807 104.398 171.78 104.275 171.815 104.155C171.849 104.034 171.944 103.92 172.09 103.82C172.236 103.721 172.431 103.64 172.656 103.584C172.882 103.527 173.133 103.498 173.387 103.498L223.086 103.456H223.089C223.352 103.456 223.61 103.487 223.842 103.547C224.074 103.606 224.271 103.692 224.415 103.797C224.56 103.902 224.648 104.023 224.672 104.148C224.695 104.273 224.653 104.399 224.549 104.515L224.463 104.497L224.549 104.515L217.63 112.23C217.508 112.366 217.304 112.483 217.044 112.565C216.785 112.647 216.48 112.69 216.169 112.69Z" fill="#CACACA"/>
<path d="M198.239 114.582C200.426 114.582 202.199 113.735 202.199 112.69C202.199 111.645 200.426 110.798 198.239 110.798C196.052 110.798 194.28 111.645 194.28 112.69C194.28 113.735 196.052 114.582 198.239 114.582Z" fill="#3F3D56"/>
<path d="M91.7221 188.858C90.9477 191.585 87.0692 194.045 82.0809 195.652C80.8924 196.036 79.6381 196.371 78.3315 196.654C76.8949 196.964 75.4132 197.224 73.898 197.431C67.251 198.36 60.0686 198.4 53.0796 198.418C46.0132 198.44 38.9491 198.461 31.8868 198.483C26.3177 198.499 20.5678 198.499 15.4244 197.478C15.3475 197.464 15.2721 197.449 15.1986 197.431C10.1456 196.389 5.84124 194.098 5.96386 191.477C6.01315 190.553 6.55992 189.651 7.55137 188.858C8.20765 188.326 8.99638 187.833 9.90038 187.391C12.7011 186.003 16.586 184.914 20.2257 184.038C26.2273 182.598 33.0098 180.729 34.7651 177.769C34.9504 177.457 35.0756 177.138 35.1393 176.816C35.5524 174.781 33.4809 172.909 30.8415 171.234C30.5833 171.068 30.3122 170.901 30.0348 170.735C29.4411 170.38 28.8279 170.032 28.2213 169.698C27.9632 169.557 27.7052 169.412 27.4405 169.267C25.0012 167.916 22.5425 166.473 21.2582 164.86C20.7054 164.185 20.3977 163.469 20.3483 162.744C20.2063 160.126 26.3305 157.489 30.9641 158.726C33.2356 158.621 35.5072 158.513 37.7789 158.402C40.5667 158.27 43.3415 158.137 46.123 158.001H46.1293C46.7553 157.977 47.3685 157.946 47.9815 157.915C53.7702 157.641 59.5544 157.364 65.3345 157.085C67.9029 156.965 70.9231 156.919 72.5945 157.863C74.4144 158.893 73.4721 160.521 71.6716 161.56C69.8713 162.596 67.3738 163.33 65.6831 164.403C63.4953 165.791 62.9855 167.546 63.6115 169.267C63.7928 169.766 64.0649 170.257 64.4246 170.735C65.0563 171.587 65.9316 172.393 67.0252 173.131C70.8199 175.672 76.4407 177.423 81.429 179.437C86.4239 181.454 91.0962 184.014 91.7803 187.116C91.7997 187.205 91.819 187.298 91.8254 187.39C91.8979 187.88 91.8632 188.372 91.7221 188.858Z" fill="#E6E6E6"/>
<path d="M51.1383 160.621C46.1028 158.244 41.8136 155.531 38.4042 152.566C35.005 149.617 32.4943 146.454 30.9466 143.169C29.3774 139.836 28.8577 136.409 29.4046 133.002C30.5387 126.064 35.9037 119.437 44.8361 113.94C45.3815 113.606 45.94 113.277 46.5116 112.952C47.1488 112.59 48.2316 113.112 47.5988 113.472C38.4837 118.695 32.7731 125.08 31.1736 131.838C30.0167 137.002 31.3084 142.225 34.9529 147.117C38.5973 152.01 44.5009 156.448 52.2254 160.101C52.9311 160.434 51.8438 160.953 51.1383 160.621V160.621Z" fill="#E6E6E6"/>
<path d="M44.2164 114.564C44.8389 114.453 45.4484 114.326 46.0425 114.183C46.0725 114.205 46.1018 114.228 46.1319 114.25L44.2164 114.564Z" fill="#E6E6E6"/>
<path d="M56.0867 108.083C55.8351 108.756 55.3808 109.409 54.738 110.02C52.9631 111.723 50.1359 113.125 46.6391 114.035C46.4455 114.084 46.2454 114.137 46.0454 114.183C45.8066 114.004 45.5614 113.825 45.3291 113.646C43.6819 112.474 42.4642 111.177 41.7281 109.81C40.9795 108.203 41.3861 106.399 43.5415 105.113C45.6904 103.827 49.7948 103.251 52.7698 104.083C53.6287 104.328 54.3575 104.665 54.8993 105.067C54.6025 105.243 54.3056 105.415 54.0088 105.591C53.9827 105.607 53.9547 105.623 53.9249 105.637C53.6668 105.792 53.4022 105.943 53.144 106.097C52.0663 106.729 50.9951 107.364 49.9174 107.994C51.4364 108.127 52.9821 108.178 54.525 108.145C54.6477 108.142 54.7767 108.138 54.8993 108.135C55.293 108.123 55.6931 108.108 56.0867 108.083Z" fill="#E6E6E6"/>
<path d="M34.3196 120.73L33.9066 123.302L33.7969 123.999C33.6807 123.971 33.5581 123.943 33.442 123.915C29.4279 122.963 25.8854 121.613 23.0509 119.954C20.2164 118.295 18.1553 116.367 17.0053 114.297C16.6209 113.579 16.3512 112.848 16.1987 112.11C18.2896 111.956 20.3869 111.799 22.4778 111.645C20.785 110.592 18.6645 109.714 16.2439 109.064C16.7958 106.49 18.742 104.029 21.8905 101.924C22.4326 106.236 31.8803 108.977 35.3393 112.965C36.4005 114.213 36.8598 115.559 36.6833 116.903C36.5067 118.247 35.6989 119.555 34.3196 120.73Z" fill="#E6E6E6"/>
<path d="M32.5271 143.319C32.0237 143.331 31.5203 143.338 31.0235 143.334C26.7289 143.321 22.4851 142.889 18.5524 142.065C14.6197 141.24 11.0808 140.04 8.15288 138.539C5.7827 137.299 3.87695 135.873 2.51911 134.323C2.56429 134.32 2.60301 134.317 2.64819 134.314C4.73906 134.16 6.8364 134.003 8.92729 133.849C6.70663 132.466 3.7552 131.391 0.376621 130.734C-0.0803099 129.34 -0.115087 127.923 0.273365 126.524C4.99719 130.203 16.0389 130.499 23.015 133.238C26.3419 134.563 28.6099 136.396 29.436 138.428C29.6418 138.93 29.7521 139.44 29.765 139.952C29.7716 140.075 29.7716 140.195 29.765 140.315L29.9201 140.482L32.5271 143.319Z" fill="#E6E6E6"/>
<path d="M53.2793 147.578C51.9434 148.361 50.6076 149.151 49.2718 149.934C50.9141 150.078 52.5872 150.126 54.2537 150.076C52.7738 152.609 49.9328 154.913 46.0128 156.758C45.645 156.931 45.2643 157.101 44.877 157.261C44.7996 157.295 44.7157 157.329 44.6383 157.363L44.2898 156.891L44.2833 156.888L42.3086 154.276C39.8032 153.072 38.0683 151.552 37.3073 149.894V149.888C36.8444 148.917 36.7375 147.915 36.9911 146.927C38.0946 142.644 45.6708 138.792 43.7864 134.57C47.9385 136.177 51.1599 138.265 53.1438 140.636C52.0661 141.268 50.9948 141.904 49.9171 142.533C51.4361 142.666 52.9819 142.717 54.5248 142.684C55.0652 143.728 55.3596 144.797 55.4024 145.872C55.4089 146.027 55.4089 146.178 55.4024 146.332C54.7248 146.733 54.0408 147.131 53.3632 147.532C53.3371 147.548 53.3091 147.563 53.2793 147.578Z" fill="#E6E6E6"/>
<path d="M289.538 21.0494H250.108C249.051 21.0488 248.038 20.848 247.291 20.4909C246.543 20.1338 246.123 19.6497 246.122 19.1446V1.90469C246.123 1.3997 246.543 0.915576 247.291 0.558502C248.038 0.201428 249.051 0.000572986 250.108 0H289.538C290.595 0.000570538 291.608 0.201427 292.355 0.558502C293.102 0.915576 293.523 1.3997 293.524 1.90469V19.1446C293.523 19.6497 293.102 20.1338 292.355 20.4909C291.608 20.848 290.595 21.0488 289.538 21.0494Z" fill="#E6E6E6"/>
<path d="M286.768 19.4619H252.881C251.943 19.4614 251.043 19.2831 250.38 18.966C249.716 18.649 249.343 18.2191 249.342 17.7707V3.2786C249.343 2.83023 249.716 2.40037 250.38 2.08333C251.043 1.76629 251.943 1.58795 252.881 1.58744H286.768C287.706 1.58795 288.606 1.76628 289.269 2.08333C289.933 2.40037 290.306 2.83023 290.307 3.2786V17.7707C290.306 18.2191 289.933 18.649 289.269 18.966C288.606 19.2831 287.706 19.4614 286.768 19.4619Z" fill="white"/>
<path d="M283.388 5.80673H256.262C256.145 5.80688 256.03 5.79606 255.922 5.77488C255.815 5.7537 255.717 5.72258 255.635 5.68331C255.552 5.64404 255.487 5.59738 255.442 5.54602C255.398 5.49465 255.375 5.43958 255.375 5.38397C255.375 5.32836 255.398 5.27329 255.442 5.22192C255.487 5.17056 255.552 5.1239 255.635 5.08463C255.717 5.04536 255.815 5.01425 255.922 4.99307C256.03 4.97189 256.145 4.96106 256.262 4.96121H283.388C283.504 4.96106 283.619 4.97189 283.727 4.99307C283.835 5.01425 283.932 5.04536 284.015 5.08463C284.097 5.1239 284.163 5.17056 284.207 5.22192C284.252 5.27329 284.275 5.32836 284.275 5.38397C284.275 5.43958 284.252 5.49465 284.207 5.54602C284.163 5.59738 284.097 5.64404 284.015 5.68331C283.932 5.72258 283.835 5.7537 283.727 5.77488C283.619 5.79606 283.504 5.80688 283.388 5.80673Z" fill="#8982FF"/>
<path d="M283.387 7.47714H256.261C256.027 7.47714 255.802 7.43259 255.636 7.3533C255.47 7.27402 255.377 7.16648 255.377 7.05436C255.377 6.94223 255.47 6.83469 255.636 6.75541C255.802 6.67612 256.027 6.63158 256.261 6.63158H283.387C283.622 6.63158 283.847 6.67612 284.013 6.75541C284.179 6.83469 284.272 6.94223 284.272 7.05436C284.272 7.16648 284.179 7.27402 284.013 7.3533C283.847 7.43259 283.622 7.47714 283.387 7.47714Z" fill="#8982FF"/>
<path d="M268.02 9.14774H256.261C256.027 9.14774 255.802 9.1032 255.636 9.02391C255.47 8.94463 255.377 8.83709 255.377 8.72496C255.377 8.61283 255.47 8.5053 255.636 8.42602C255.802 8.34673 256.027 8.30218 256.261 8.30218H268.02C268.254 8.30218 268.479 8.34673 268.645 8.42602C268.811 8.5053 268.904 8.61283 268.904 8.72496C268.904 8.83709 268.811 8.94463 268.645 9.02391C268.479 9.1032 268.254 9.14774 268.02 9.14774Z" fill="#8982FF"/>
<path d="M283.388 12.6464H256.262C256.145 12.6466 256.03 12.6358 255.922 12.6146C255.815 12.5934 255.717 12.5623 255.635 12.523C255.552 12.4838 255.487 12.4371 255.442 12.3857C255.398 12.3344 255.375 12.2793 255.375 12.2237C255.375 12.1681 255.398 12.113 255.442 12.0616C255.487 12.0103 255.552 11.9636 255.635 11.9243C255.717 11.8851 255.815 11.854 255.922 11.8328C256.03 11.8116 256.145 11.8008 256.262 11.8009H283.388C283.504 11.8008 283.619 11.8116 283.727 11.8328C283.835 11.854 283.932 11.8851 284.015 11.9243C284.097 11.9636 284.163 12.0103 284.207 12.0616C284.252 12.113 284.275 12.1681 284.275 12.2237C284.275 12.2793 284.252 12.3344 284.207 12.3857C284.163 12.4371 284.097 12.4838 284.015 12.523C283.932 12.5623 283.835 12.5934 283.727 12.6146C283.619 12.6358 283.504 12.6466 283.388 12.6464Z" fill="#E4E4E4"/>
<path d="M283.388 14.317H256.262C256.145 14.3171 256.03 14.3063 255.922 14.2851C255.815 14.2639 255.717 14.2328 255.635 14.1935C255.552 14.1543 255.487 14.1076 255.442 14.0562C255.398 14.0049 255.375 13.9498 255.375 13.8942C255.375 13.8386 255.398 13.7835 255.442 13.7321C255.487 13.6808 255.552 13.6341 255.635 13.5948C255.717 13.5556 255.815 13.5244 255.922 13.5033C256.03 13.4821 256.145 13.4713 256.262 13.4714H283.388C283.504 13.4713 283.619 13.4821 283.727 13.5033C283.835 13.5244 283.932 13.5556 284.015 13.5948C284.097 13.6341 284.163 13.6808 284.207 13.7321C284.252 13.7835 284.275 13.8386 284.275 13.8942C284.275 13.9498 284.252 14.0049 284.207 14.0562C284.163 14.1076 284.097 14.1543 284.015 14.1935C283.932 14.2328 283.835 14.2639 283.727 14.2851C283.619 14.3063 283.504 14.3171 283.388 14.317Z" fill="#E4E4E4"/>
<path d="M268.02 15.9874H256.261C256.027 15.9874 255.802 15.9429 255.636 15.8636C255.47 15.7843 255.377 15.6768 255.377 15.5647C255.377 15.4525 255.47 15.345 255.636 15.2657C255.802 15.1864 256.027 15.1419 256.261 15.1419H268.02C268.254 15.1419 268.479 15.1864 268.645 15.2657C268.811 15.345 268.904 15.4525 268.904 15.5647C268.904 15.6768 268.811 15.7843 268.645 15.8636C268.479 15.9429 268.254 15.9874 268.02 15.9874Z" fill="#E4E4E4"/>
</svg>
