<svg width="16" height="15" viewBox="0 0 16 15" fill="none" xmlns="http://www.w3.org/2000/svg">
<path d="M8.43067 0.998526L8.92952 0.964626L8.92837 0.947654L8.92606 0.9308L8.43067 0.998526ZM8.43592 1.07584H8.93592V1.05887L8.93477 1.04194L8.43592 1.07584ZM11.9579 4.03005V4.53005V4.03005ZM15.2333 7.25709L15.7333 7.24582L15.7327 7.23453L15.2333 7.25709ZM15.2368 7.41602H15.737L15.7367 7.40475L15.2368 7.41602ZM12.1185 14.4962L12.1306 14.9962L12.1426 14.9956L12.1185 14.4962ZM11.9653 14.4999V15L11.9773 14.9998L11.9653 14.4999ZM0.503686 11.2735L0.00368897 11.2846L0.00418997 11.2958L0.503686 11.2735ZM0.500121 11.1139H0L0.000249998 11.1251L0.500121 11.1139ZM3.61104 4.03375L3.59898 3.53375L3.58689 3.53434L3.61104 4.03375ZM3.76431 4.03005L3.76428 3.52991L3.75225 3.5302L3.76431 4.03005ZM7.30112 8.74757L6.94195 9.0954L7.8011 9.9826L7.80112 8.74758L7.30112 8.74757ZM6.12219 7.53015L6.48137 7.18232L6.12219 7.53015ZM5.31904 7.53015L5.67821 7.87797L5.31904 7.53015ZM5.25974 8.28684L4.84706 8.56915L4.85898 8.58657L4.87233 8.60293L5.25974 8.28684ZM5.31904 8.35952L4.93163 8.67561L4.9448 8.69174L4.95926 8.70673L5.31904 8.35952ZM7.46323 10.5813L7.83417 10.246L7.82869 10.24L7.82301 10.2341L7.46323 10.5813ZM8.21133 10.6339L8.52935 11.0197L8.54346 11.0081L8.55668 10.9954L8.21133 10.6339ZM8.26639 10.5813L8.61174 10.9428L8.61909 10.9358L8.62616 10.9285L8.26639 10.5813ZM10.4106 8.35952L10.0514 8.01168L10.0508 8.0123L10.4106 8.35952ZM10.4106 7.53015L10.7697 7.18232L10.4106 7.53015ZM9.67098 7.47355L9.36722 7.0764L9.35238 7.08775L9.33844 7.10017L9.67098 7.47355ZM9.60743 7.53015L9.27489 7.15676L9.26051 7.16957L9.24716 7.18345L9.60743 7.53015ZM8.43585 8.74757L7.93586 8.74756L7.93584 9.98823L8.79612 9.09428L8.43585 8.74757ZM7.8012 4.02983V1.07584H6.80121V4.02983H7.8012ZM7.8012 1.07584C7.8012 1.05339 7.8099 1.03369 7.8238 1.01945C7.83695 1.00598 7.85181 0.999993 7.86856 0.999993V0C7.26443 0 6.80121 0.496886 6.80121 1.07584H7.8012ZM7.86856 0.999993C7.87879 0.999993 7.89302 1.0037 7.9082 1.0173C7.924 1.03144 7.93302 1.04964 7.93529 1.06625L8.92606 0.9308C8.85566 0.415823 8.41344 0 7.86856 0V0.999993ZM7.93183 1.03242L7.93708 1.10974L8.93477 1.04194L8.92952 0.964626L7.93183 1.03242ZM7.93593 1.07584V4.02983H8.93592V1.07584H7.93593ZM8.43589 4.52983L11.9579 4.53005V3.53005L8.43596 3.52983L8.43589 4.52983ZM11.9579 4.53005C13.4287 4.53005 14.6642 5.74005 14.7338 7.27966L15.7327 7.23453C15.6405 5.19218 13.9944 3.53005 11.9579 3.53005V4.53005ZM14.7334 7.26836L14.737 7.42729L15.7367 7.40475L15.7331 7.24582L14.7334 7.26836ZM14.7368 7.41602V11.1291H15.7368V7.41602H14.7368ZM14.7368 11.1291C14.7368 12.6771 13.5446 13.927 12.0945 13.9968L12.1426 14.9956C14.1478 14.8992 15.7368 13.1882 15.7368 11.1291H14.7368ZM12.1065 13.9964L11.9533 14L11.9773 14.9998L12.1306 14.9961L12.1065 13.9964ZM11.9653 13.9999H3.77168V14.9999H11.9653V13.9999ZM3.77168 13.9999C2.30136 13.9999 1.07244 12.7976 1.00318 11.2511L0.00418997 11.2958C0.0959313 13.3444 1.73465 14.9999 3.77168 14.9999V13.9999ZM1.00356 11.2623L0.999993 11.1027L0.000249998 11.1251L0.00381397 11.2846L1.00356 11.2623ZM1.00012 11.1139V7.40841H0.000124999V11.1139H1.00012ZM1.00012 7.40841C1.00012 5.85761 2.18821 4.60315 3.6352 4.53317L3.58689 3.53434C1.57946 3.63142 0.000124999 5.35214 0.000124999 7.40841H1.00012ZM3.62311 4.53361L3.77638 4.52991L3.75225 3.5302L3.59898 3.5339L3.62311 4.53361ZM3.76434 4.53005L7.30123 4.52983L7.30116 3.52983L3.76428 3.53005L3.76434 4.53005ZM6.80121 4.02982L6.80113 8.74756L7.80112 8.74758L7.8012 4.02984L6.80121 4.02982ZM7.66031 8.39974L6.48137 7.18232L5.763 7.87797L6.94195 9.0954L7.66031 8.39974ZM6.48137 7.18232C6.06384 6.75116 5.37738 6.75116 4.95985 7.18232L5.67821 7.87797C5.69182 7.86392 5.7065 7.85894 5.72061 7.85894C5.73472 7.85894 5.74939 7.86392 5.763 7.87797L6.48137 7.18232ZM4.95985 7.18232C4.74624 7.40291 4.65693 7.68623 4.65693 7.94863H5.65692C5.65692 7.90669 5.67077 7.88565 5.67821 7.87797L4.95985 7.18232ZM4.65693 7.94863C4.65693 8.1564 4.71569 8.37711 4.84706 8.56915L5.6724 8.00452C5.66419 7.99252 5.65692 7.97218 5.65692 7.94863H4.65693ZM4.87233 8.60293L4.93163 8.67561L5.70643 8.04342L5.64713 7.97074L4.87233 8.60293ZM4.95926 8.70673L7.10345 10.9285L7.82301 10.2341L5.67881 8.0123L4.95926 8.70673ZM7.09229 10.9166C7.29723 11.1433 7.58314 11.2563 7.86849 11.2563V10.2563C7.85656 10.2563 7.84799 10.254 7.8428 10.2518C7.83791 10.2497 7.83554 10.2476 7.83417 10.246L7.09229 10.9166ZM7.86849 11.2563C8.10396 11.2563 8.34001 11.1758 8.52935 11.0197L7.89329 10.2481C7.89111 10.2499 7.88764 10.2521 7.88279 10.2538C7.87783 10.2555 7.87279 10.2563 7.86849 10.2563V11.2563ZM8.55668 10.9954L8.61174 10.9428L7.92102 10.2198L7.86596 10.2724L8.55668 10.9954ZM8.62616 10.9285L10.7703 8.70673L10.0508 8.0123L7.9066 10.2341L8.62616 10.9285ZM10.7697 8.70735C11.1785 8.2852 11.1785 7.60447 10.7697 7.18232L10.0514 7.87797C10.0658 7.89288 10.0764 7.91583 10.0764 7.94483C10.0764 7.97382 10.0658 7.99678 10.0514 8.01168L10.7697 8.70735ZM10.7697 7.18232C10.3905 6.79068 9.78862 6.7541 9.36722 7.0764L9.97472 7.8707C9.99731 7.85342 10.0287 7.85457 10.0514 7.87797L10.7697 7.18232ZM9.33844 7.10017L9.27489 7.15676L9.93996 7.90353L10.0035 7.84693L9.33844 7.10017ZM9.24716 7.18345L8.07559 8.40087L8.79612 9.09428L9.96769 7.87684L9.24716 7.18345ZM8.93585 8.74758L8.93592 4.02984L7.93593 4.02982L7.93586 8.74756L8.93585 8.74758ZM8.43592 3.52983H7.3012V4.52983H8.43592V3.52983Z" fill="white"/>
</svg>
