<svg width="293" height="190" viewBox="0 0 293 190" fill="none" xmlns="http://www.w3.org/2000/svg">
<path d="M83.6263 42.2473C81.3824 42.7419 79.0908 43.1613 76.7634 43.5031C73.689 43.9366 71.9531 44.1377 68.9856 43.4712C68.8815 43.4479 68.782 43.4247 68.6882 43.402C63.0636 42.0182 58.2555 39.7182 54.8493 36.7819C51.443 33.8457 49.5854 30.3998 49.5027 26.8637C49.4878 26.7424 49.4878 26.6149 49.4878 26.4904C49.4849 25.8912 49.5344 25.2921 49.6362 24.6958C49.7662 23.8833 49.9908 23.0769 50.3085 22.282L50.2788 22.2789C47.8763 20.8574 46.9519 18.9103 47.2584 16.9538C47.4683 15.6274 48.1959 14.3459 49.3861 13.2058C50.5764 12.0657 52.1983 11.0968 54.1297 10.3721C57.1566 9.27096 60.5696 8.57391 64.1205 8.33165C65.0738 8.26804 66.0327 8.23584 66.9926 8.23522H76.0094C77.8717 7.98294 79.7635 7.81037 81.6697 7.71888H81.6844C99.8318 6.84796 114.143 13.8091 112.808 22.2789C112.798 22.2883 112.784 22.2975 112.774 22.3069C112.388 22.6708 112.047 23.0161 111.745 23.3458C111.454 23.6537 111.207 23.9492 110.994 24.2291C109.338 26.394 117.208 59.9819 114.385 60.4921C112.779 60.7814 106.303 35.7876 107.464 40.5403C108.928 46.5031 91.9868 40.4591 83.6263 42.2473Z" fill="#2F2E41"/>
<path d="M110.966 102.964L136.122 133.973L39.3529 128.302L59.5529 98.5342L110.966 102.964Z" fill="#FFB6B6"/>
<path d="M161.464 165.136C144.637 168.377 126.903 169.752 109.195 169.187L101.494 161.961C101.494 161.961 101.172 164.652 100.691 168.767C92.2614 168.201 83.9417 167.181 75.8408 165.718C60.478 162.939 46.0772 158.632 31.4797 154.66C28.523 144.462 27.4136 128.736 43.76 119.581L131.744 128.91C131.744 128.91 145.861 135.019 142.084 137.207C138.308 139.393 137.723 139.054 140.204 140.49C142.686 141.925 148.047 143.845 148.102 145.1C148.124 145.59 154.141 154.48 161.464 165.136Z" fill="#2F2E41"/>
<path d="M95.6014 43.0439L74.3448 43.902L60.6057 51.5838L55.794 52.0808C51.4689 52.527 47.5771 53.876 44.8566 55.8721C42.1362 57.8681 40.7762 60.3724 41.0346 62.9101C42.0243 72.6126 44.2404 87.11 48.8721 91.8135C56.054 99.1067 61.9862 96.8185 56.054 99.1067C50.1219 101.395 46.1393 99.597 48.8721 103.213C51.6049 106.83 45.1785 111.468 45.1785 111.468L42.6202 112.949L45.3336 113.592L131.791 120.101C131.791 120.101 124.315 100.653 128.991 95.8754C133.666 91.0977 145.002 76.6562 134.885 71.0054L124.993 50.8637L107.977 47.96L95.6014 43.0439Z" fill="#8982FF"/>
<path d="M224.278 122.867C222.856 122.84 221.46 122.636 220.188 122.267C218.915 121.898 217.797 121.374 216.909 120.73C216.021 120.086 215.386 119.338 215.046 118.539C214.707 117.739 214.672 116.906 214.944 116.098L174.388 100.206L179.227 92.6341L227.157 111.713C229.475 112.079 231.48 112.924 232.793 114.088C234.105 115.252 234.634 116.655 234.28 118.03C233.925 119.404 232.711 120.656 230.867 121.548C229.024 122.439 226.68 122.908 224.278 122.867Z" fill="#FFB6B6"/>
<path d="M109.727 49.9125L103.834 51.2627L135.271 86.7886L200.35 112.456L209.731 103.282L160.192 78.5232L140.359 56.5145C137.568 53.4172 132.892 51.0282 127.235 49.8089C121.578 48.5896 115.34 48.6265 109.727 49.9125Z" fill="#8982FF"/>
<path d="M83.8648 39.9194C95.6532 39.9194 105.21 34.39 105.21 27.5691C105.21 20.7481 95.6532 15.2186 83.8648 15.2186C72.0764 15.2186 62.5201 20.7481 62.5201 27.5691C62.5201 34.39 72.0764 39.9194 83.8648 39.9194Z" fill="#FFB6B6"/>
<path d="M102.428 22.346C102.072 22.4546 101.721 22.5547 101.365 22.6548C100.994 22.7578 100.623 22.8608 100.248 22.9581C93.1042 24.8315 87.2857 25.0404 83.7561 22.346C83.6595 20.9284 83.1081 19.5336 82.1298 18.2327C82.3026 19.6864 81.6405 21.1325 80.2464 22.346H73.1376C65.8165 25.1577 62.0594 27.7405 67.1413 36.9708C67.4724 37.5773 69.7416 59.1214 70.3891 60.7776C59.3059 58.3176 49.7453 32.1998 49.5031 25.3178C49.4883 25.2063 49.4883 25.089 49.4883 24.9745C49.4854 24.4232 49.5349 23.8723 49.6366 23.3241C49.767 22.5758 49.9917 21.8339 50.3089 21.1045L50.2792 21.1017C49.1516 20.4779 48.2913 19.7103 47.7669 18.8601C47.2425 18.01 47.0685 17.1007 47.2588 16.2047C49.1181 14.7962 51.4189 13.6026 54.0412 12.6865C56.4256 12.0184 58.9111 11.4784 61.4662 11.0733C61.5305 11.0647 61.5849 11.0561 61.6491 11.0476C62.4302 10.9245 63.231 10.813 64.0318 10.7157C65.6822 10.5155 67.3507 10.3694 69.0296 10.2781C69.1533 10.2753 69.2718 10.2695 69.3806 10.2695C70.0522 10.2698 70.7113 10.3745 71.2888 10.5727C71.2938 10.5727 71.2938 10.5756 71.3037 10.5756C71.8585 10.7675 72.3189 11.0388 72.6401 11.3634C72.9613 11.688 73.1326 12.055 73.1376 12.4291H81.0571C81.3486 12.4291 81.6403 12.4348 81.932 12.4434C92.9608 12.698 101.824 15.4267 102.393 21.6995C102.418 21.9169 102.428 22.1286 102.428 22.346Z" fill="#2F2E41"/>
<path d="M55.6067 22.8429C63.373 22.8429 69.6688 19.2 69.6688 14.7064C69.6688 10.2127 63.373 6.56983 55.6067 6.56983C47.8404 6.56983 41.5446 10.2127 41.5446 14.7064C41.5446 19.2 47.8404 22.8429 55.6067 22.8429Z" fill="#2F2E41"/>
<path d="M74.9129 10.9428C73.3153 15.3404 65.4335 17.9705 57.893 16.8946C54.272 16.378 51.154 15.0502 49.225 13.2033C47.2959 11.3565 46.7138 9.14184 47.6067 7.04666C49.4661 2.68366 58.6174 3.94147 64.6266 1.09483C73.1274 -2.93217 77.0674 5.01229 74.9129 10.9428Z" fill="#2F2E41"/>
<path d="M43.6688 133.354C55.6536 105.075 79.4005 80.7683 118.728 61.7244C120.25 60.2757 122.704 59.2354 125.549 58.8318C128.395 58.4282 131.402 58.6943 133.909 59.5717L227.402 92.3714C229.905 93.2521 231.703 94.6715 232.401 96.3183C233.099 97.9649 232.638 99.7045 231.122 101.155C216.112 130.173 193.628 155.352 156.063 172.785C154.54 174.234 152.087 175.274 149.241 175.677C146.396 176.081 143.389 175.815 140.882 174.938L47.3894 142.138C44.8855 141.257 43.0876 139.838 42.3901 138.191C41.6926 136.544 42.1525 134.805 43.6688 133.354Z" fill="#F2F2F2"/>
<path opacity="0.2" d="M60.2862 142.884C57.7822 142.004 55.9844 140.584 55.2869 138.938C54.5894 137.291 55.0493 135.551 56.5656 134.101C68.5504 105.821 92.2973 81.5149 131.625 62.4711C132.632 61.5227 134.055 60.7452 135.749 60.2172L133.909 59.5717C131.402 58.6943 128.395 58.4282 125.549 58.8318C122.703 59.2353 120.25 60.2756 118.728 61.7243C79.4005 80.7682 55.6537 105.075 43.6689 133.354C42.1525 134.805 41.6926 136.544 42.3901 138.191C43.0876 139.838 44.8855 141.257 47.3893 142.138L140.882 174.938C142.546 175.517 144.445 175.832 146.387 175.85C148.328 175.867 150.244 175.588 151.939 175.039L60.2862 142.884Z" fill="black"/>
<path d="M169.93 127.085L107.174 105.206C106.177 104.857 105.459 104.294 105.18 103.64C104.9 102.985 105.081 102.293 105.682 101.716C106.283 101.139 107.256 100.723 108.386 100.56C109.517 100.398 110.713 100.501 111.711 100.848L174.467 122.728C175.462 123.077 176.177 123.64 176.455 124.294C176.733 124.947 176.553 125.638 175.952 126.215C175.352 126.792 174.38 127.207 173.252 127.37C172.123 127.533 170.928 127.431 169.93 127.085Z" fill="white"/>
<path d="M133.422 98.0712L119.616 93.2577C118.615 92.9114 117.893 92.3493 117.609 91.695C117.325 91.0407 117.502 90.3479 118.1 89.769C118.699 89.1901 119.67 88.7724 120.801 88.608C121.932 88.4435 123.129 88.5457 124.13 88.892L124.153 88.9003L137.96 93.7138C138.955 94.063 139.67 94.6262 139.948 95.2799C140.227 95.9337 140.046 96.6246 139.445 97.2013C138.844 97.778 137.873 98.1934 136.744 98.3565C135.615 98.5196 134.421 98.4169 133.422 98.0712Z" fill="white"/>
<path d="M159.954 136.663L97.1975 114.784C96.1993 114.436 95.4807 113.873 95.1994 113.219C94.9181 112.565 95.0972 111.873 95.6973 111.295C96.2975 110.717 97.2696 110.301 98.4 110.137C99.5305 109.974 100.727 110.077 101.726 110.424L101.735 110.427L164.491 132.306C165.486 132.655 166.201 133.218 166.479 133.872C166.757 134.526 166.576 135.217 165.976 135.793C165.375 136.37 164.404 136.785 163.276 136.948C162.147 137.111 160.952 137.009 159.954 136.663H159.954Z" fill="white"/>
<path d="M177.898 85.8314C188.021 85.8314 196.228 81.0829 196.228 75.2254C196.228 69.3679 188.021 64.6195 177.898 64.6195C167.775 64.6195 159.568 69.3679 159.568 75.2254C159.568 81.0829 167.775 85.8314 177.898 85.8314Z" fill="#3F3D56"/>
<path d="M146.303 188.871C167.94 188.871 185.48 178.722 185.48 166.203C185.48 153.683 167.94 143.534 146.303 143.534C124.666 143.534 107.126 153.683 107.126 166.203C107.126 178.722 124.666 188.871 146.303 188.871Z" fill="white"/>
<path d="M146.303 189.188C138.446 189.188 130.766 187.839 124.233 185.314C117.701 182.788 112.609 179.199 109.602 174.999C106.596 170.799 105.809 166.177 107.342 161.719C108.875 157.26 112.658 153.164 118.213 149.95C123.769 146.735 130.847 144.546 138.553 143.66C146.258 142.773 154.245 143.228 161.504 144.967C168.763 146.707 174.967 149.653 179.332 153.433C183.697 157.213 186.026 161.657 186.026 166.203C186.015 172.296 181.826 178.139 174.379 182.448C166.931 186.757 156.834 189.181 146.303 189.188ZM146.303 143.85C138.662 143.85 131.193 145.161 124.84 147.617C118.488 150.073 113.536 153.564 110.612 157.649C107.688 161.733 106.923 166.228 108.414 170.563C109.905 174.899 113.584 178.882 118.987 182.008C124.389 185.134 131.273 187.263 138.766 188.126C146.26 188.988 154.027 188.545 161.086 186.854C168.145 185.162 174.178 182.297 178.423 178.621C182.668 174.945 184.933 170.623 184.933 166.203C184.922 160.276 180.848 154.595 173.606 150.404C166.364 146.214 156.544 143.857 146.303 143.85Z" fill="#3F3D56"/>
<path d="M140.959 178.001C140.283 178.001 139.615 177.91 139.01 177.735C138.405 177.56 137.879 177.305 137.473 176.992L126.785 168.746C126.441 168.481 126.191 168.18 126.048 167.859C125.906 167.538 125.874 167.204 125.955 166.876C126.036 166.548 126.227 166.233 126.519 165.947C126.811 165.662 127.196 165.413 127.655 165.214C128.113 165.016 128.634 164.871 129.189 164.789C129.743 164.707 130.321 164.689 130.887 164.736C131.454 164.783 131.999 164.894 132.492 165.063C132.984 165.232 133.415 165.455 133.758 165.721L140.75 171.115L158.71 155.528C159.027 155.252 159.436 155.015 159.911 154.831C160.386 154.647 160.92 154.519 161.481 154.454C162.042 154.389 162.62 154.388 163.182 154.453C163.743 154.517 164.277 154.645 164.753 154.828C165.229 155.012 165.638 155.248 165.957 155.523C166.275 155.798 166.497 156.107 166.609 156.432C166.722 156.756 166.722 157.091 166.611 157.416C166.5 157.74 166.279 158.05 165.962 158.325L144.586 176.878C144.199 177.214 143.679 177.491 143.069 177.686C142.459 177.881 141.777 177.989 141.081 178C141.04 178.001 141 178.001 140.959 178.001Z" fill="#8982FF"/>
<path d="M272.827 51.3288C274.384 51.2518 275.571 50.6813 275.478 50.0547C275.385 49.4281 274.048 48.9825 272.491 49.0595C270.935 49.1366 269.748 49.707 269.84 50.3336C269.933 50.9603 271.27 51.4058 272.827 51.3288Z" fill="white"/>
<path d="M290.343 47.8905C291.9 47.8135 293.087 47.2431 292.994 46.6164C292.901 45.9898 291.564 45.5442 290.007 45.6213C288.451 45.6983 287.264 46.2687 287.356 46.8954C287.449 47.522 288.786 47.9675 290.343 47.8905Z" fill="#3F3D56"/>
<path d="M264.523 43.5959C266.08 43.5189 267.267 42.9485 267.174 42.3218C267.082 41.6952 265.744 41.2496 264.188 41.3267C262.631 41.4037 261.444 41.9741 261.537 42.6008C261.629 43.2274 262.966 43.6729 264.523 43.5959Z" fill="#FF6584"/>
<path d="M257.174 41.1046C257.844 41.017 258.211 40.4941 257.993 39.9368C257.776 39.3795 257.056 38.9987 256.386 39.0863C255.716 39.1739 255.349 39.6967 255.567 40.2541C255.784 40.8114 256.504 41.1922 257.174 41.1046Z" fill="#E6E6E6"/>
<path d="M251.945 35.0562C252.615 34.9686 252.982 34.4458 252.764 33.8884C252.546 33.3311 251.827 32.9503 251.157 33.0379C250.487 33.1255 250.12 33.6483 250.338 34.2057C250.555 34.763 251.275 35.1438 251.945 35.0562Z" fill="#3F3D56"/>
<path d="M277.042 43.5502C277.712 43.4626 278.079 42.9398 277.861 42.3825C277.643 41.8252 276.924 41.4444 276.254 41.532C275.584 41.6196 275.217 42.1424 275.435 42.6997C275.652 43.257 276.372 43.6378 277.042 43.5502Z" fill="#E6E6E6"/>
<path d="M269.393 47.225C270.063 47.1374 270.429 46.6146 270.212 46.0572C269.994 45.4999 269.274 45.1191 268.604 45.2067C267.934 45.2943 267.568 45.8171 267.785 46.3745C268.003 46.9318 268.722 47.3126 269.393 47.225Z" fill="#FF6584"/>
<path d="M283.32 50.2184C283.99 50.1308 284.357 49.608 284.139 49.0507C283.922 48.4934 283.202 48.1126 282.532 48.2002C281.862 48.2878 281.495 48.8106 281.713 49.3679C281.93 49.9253 282.65 50.306 283.32 50.2184Z" fill="#3F3D56"/>
<path d="M200.508 4.47258C200.775 3.86292 199.764 3.18866 198.249 2.96657C196.734 2.74448 195.29 3.05865 195.023 3.66831C194.756 4.27796 195.767 4.95222 197.282 5.17432C198.797 5.39641 200.241 5.08223 200.508 4.47258Z" fill="white"/>
<path d="M182.013 4.40329C182.28 3.79363 181.269 3.11938 179.754 2.89728C178.24 2.67519 176.795 2.98937 176.528 3.59902C176.261 4.20867 177.273 4.88295 178.787 5.10505C180.302 5.32714 181.746 5.01294 182.013 4.40329Z" fill="#3F3D56"/>
<path d="M203.979 13.3519C204.246 12.7422 203.235 12.0679 201.72 11.8459C200.206 11.6238 198.761 11.9379 198.494 12.5476C198.227 13.1572 199.239 13.8315 200.753 14.0536C202.268 14.2757 203.712 13.9615 203.979 13.3519Z" fill="#FF6584"/>
<path d="M208.29 16.6999C208.4 16.1321 207.935 15.636 207.252 15.5918C206.57 15.5477 205.927 15.9722 205.818 16.5401C205.708 17.1079 206.173 17.604 206.855 17.6482C207.538 17.6923 208.18 17.2678 208.29 16.6999Z" fill="#E6E6E6"/>
<path d="M209.812 23.406C209.921 22.8382 209.457 22.3421 208.774 22.2979C208.091 22.2538 207.449 22.6783 207.339 23.2462C207.23 23.814 207.694 24.3101 208.377 24.3542C209.06 24.3984 209.702 23.9738 209.812 23.406Z" fill="#3F3D56"/>
<path d="M190.903 10.6257C191.013 10.0578 190.548 9.56172 189.865 9.51759C189.183 9.47345 188.54 9.89799 188.431 10.4658C188.321 11.0337 188.786 11.5298 189.468 11.5739C190.151 11.6181 190.793 11.1935 190.903 10.6257Z" fill="#E6E6E6"/>
<path d="M200.209 8.6026C200.319 8.03476 199.854 7.53866 199.171 7.49452C198.489 7.45038 197.846 7.87492 197.737 8.44276C197.627 9.0106 198.091 9.50671 198.774 9.55085C199.457 9.59499 200.099 9.17044 200.209 8.6026Z" fill="#FF6584"/>
<path d="M188.743 3.13622C188.852 2.56838 188.388 2.07228 187.705 2.02814C187.022 1.984 186.38 2.40854 186.27 2.97638C186.161 3.54422 186.625 4.04033 187.308 4.08447C187.991 4.12861 188.633 3.70406 188.743 3.13622Z" fill="#3F3D56"/>
<path d="M49.4976 133.654C48.1005 133.323 46.8447 132.82 45.8165 132.18C44.7885 131.541 44.0128 130.779 43.5433 129.949C43.0737 129.119 42.9214 128.24 43.0968 127.372C43.2722 126.505 43.7714 125.669 44.5595 124.924L14.4433 100.429L24.1048 93.9436L59.5066 123.188C61.5753 124.049 63.0262 125.319 63.5847 126.758C64.143 128.196 63.7699 129.703 62.5362 130.993C61.3025 132.284 59.2937 133.267 56.8906 133.757C54.4875 134.248 51.8569 134.211 49.4976 133.654Z" fill="#FFB6B6"/>
<path d="M50.1904 56.0296C48.6667 55.5109 46.8735 55.3234 45.1326 55.5007C43.3915 55.6781 41.8168 56.2087 40.691 56.9973L0 89.9255L37.7099 120.916L52.4661 111.745L29.5122 90.8741L60.018 74.0682C62.5248 70.8905 62.9077 67.2881 61.0927 63.9566C59.2777 60.6251 55.3936 57.801 50.1904 56.0296Z" fill="#8982FF"/>
</svg>
