<svg width="12" height="13" viewBox="0 0 12 13" fill="none" xmlns="http://www.w3.org/2000/svg">
<path d="M10.3897 7.79394L11.0476 7.85207C11.0493 7.83274 11.05 7.81335 11.05 7.79394H10.3897ZM0.660361 7.79394H0C0 7.81335 0.000825012 7.83275 0.00247327 7.85208L0.660361 7.79394ZM5.52502 10.5801C7.1364 10.5801 8.43116 10.4796 9.35437 10.1115C9.8319 9.92106 10.2433 9.6468 10.545 9.24936C10.8486 8.84953 11.0029 8.37542 11.0476 7.85207L9.73179 7.73582C9.70432 8.05854 9.61794 8.27168 9.50014 8.42682C9.38056 8.58436 9.18992 8.73278 8.87275 8.85925C8.20653 9.12493 7.14105 9.23526 5.52502 9.23526V10.5801ZM11.05 7.79394C11.05 7.29514 10.9723 6.90294 10.8439 6.56088C10.7212 6.23389 10.5552 5.9675 10.4361 5.76449C10.3121 5.55313 10.2137 5.37248 10.1398 5.13938C10.0664 4.90754 10.0091 4.5962 10.0091 4.13694H8.68838C8.68838 4.71505 8.76121 5.16817 8.88293 5.55231C9.00424 5.93519 9.16609 6.22204 9.30232 6.45422C9.44345 6.69476 9.53773 6.84791 9.6102 7.04096C9.67702 7.21893 9.72933 7.44726 9.72933 7.79394H11.05ZM10.0091 4.13694C10.0091 2.13074 8.19075 0 5.52502 0V1.34481C7.48958 1.34481 8.68838 2.90189 8.68838 4.13694H10.0091ZM5.52502 0C2.8593 0 1.04095 2.13074 1.04095 4.13694H2.36167C2.36167 2.90189 3.56048 1.34481 5.52502 1.34481V0ZM1.04095 4.13694C1.04095 4.5962 0.983662 4.90754 0.910202 5.13938C0.836343 5.37248 0.737954 5.55313 0.613942 5.76449C0.494833 5.9675 0.328886 6.23389 0.206159 6.56088C0.0777791 6.90294 0 7.29514 0 7.79394H1.32072C1.32072 7.44726 1.37306 7.21893 1.43986 7.04096C1.51231 6.84791 1.6066 6.69476 1.74773 6.45422C1.88396 6.22204 2.04581 5.93519 2.16712 5.55231C2.28884 5.16817 2.36167 4.71505 2.36167 4.13694H1.04095ZM0.00247327 7.85208C0.0471771 8.37659 0.201463 8.85154 0.505184 9.25186C0.80717 9.64985 1.21888 9.92402 1.69664 10.1141C2.61986 10.4813 3.91462 10.5801 5.52502 10.5801V9.23526C3.90859 9.23526 2.84341 9.12644 2.1772 8.86144C1.86024 8.73537 1.66987 8.58723 1.55034 8.4297C1.43256 8.27446 1.34593 8.06057 1.31825 7.7358L0.00247327 7.85208Z" fill="#8982FF"/>
<path d="M7.38316 12.1116C7.62723 11.8357 7.60538 11.4105 7.33438 11.162C7.06338 10.9135 6.64583 10.9357 6.40177 11.2117L7.38316 12.1116ZM4.59688 11.2122C4.35312 10.936 3.9356 10.9133 3.66432 11.1615C3.39303 11.4097 3.37072 11.8348 3.61448 12.1111L4.59688 11.2122ZM6.40177 11.2117C5.88079 11.8007 5.12014 11.8052 4.59688 11.2122L3.61448 12.1111C4.66759 13.3044 6.34271 13.288 7.38316 12.1116L6.40177 11.2117Z" fill="#8982FF"/>
</svg>
