<svg width="12" height="13" viewBox="0 0 12 13" fill="none" xmlns="http://www.w3.org/2000/svg">
<path d="M7.19384 0.67988L7.67 0.214209C7.54553 0.0821275 7.37357 0.00746428 7.19384 0.00746428V0.67988ZM3.04916 0.67988L3.04661 1.35229H3.04916V0.67988ZM0.660647 3.04643L0.000762298 3.03058C0.000639966 3.03586 0.000579239 3.04114 0.000579239 3.04643H0.660647ZM0.660647 9.84524L1.32056 9.85985C1.32066 9.85501 1.32071 9.85017 1.32071 9.84524H0.660647ZM2.99184 12.3273L2.97716 12.9996C2.98205 12.9997 2.98694 12.9998 2.99184 12.9998V12.3273ZM3.04916 12.3273V11.6549C3.04205 11.6549 3.03496 11.655 3.02787 11.6552L3.04916 12.3273ZM8.02614 12.3273V12.9998C8.03506 12.9998 8.04399 12.9995 8.05291 12.9991L8.02614 12.3273ZM10.3493 9.84524H9.68918V9.85008L10.3493 9.84524ZM10.3493 4.0282H11.0093C11.0093 3.85462 10.9434 3.68775 10.8254 3.56253L10.3493 4.0282ZM7.19384 0.00746428H3.04916V1.35229H7.19384V0.00746428ZM3.05169 0.00746966C1.39668 0.000984887 0.0397644 1.34483 0.000762298 3.03058L1.32053 3.06227C1.34258 2.10922 2.11003 1.34862 3.04661 1.35229L3.05169 0.00746966ZM0.000579239 3.04643V9.84524H1.32071V3.04643H0.000579239ZM0.000735895 9.83063C-0.0358503 11.5426 1.29634 12.9615 2.97716 12.9996L3.00652 11.655C2.05463 11.6335 1.29983 10.8298 1.32056 9.85985L0.000735895 9.83063ZM2.99184 12.9998C2.99832 12.9998 2.99801 12.9998 3.01509 12.9999C3.02753 13 3.04745 13.0001 3.07044 12.9994L3.02787 11.6552C3.03154 11.6551 3.03246 11.6552 3.0259 11.6551C3.02191 11.6551 3.0197 11.6551 3.01296 11.655C3.00746 11.6549 3.00004 11.6549 2.99184 11.6549V12.9998ZM3.04916 12.9998H8.02614V11.6549H3.04916V12.9998ZM8.05291 12.9991C9.71294 12.9306 11.0212 11.5334 11.0093 9.84049L9.68918 9.85008C9.69596 10.8176 8.94833 11.6162 7.99937 11.6555L8.05291 12.9991ZM11.0093 9.84524V4.0282H9.68918V9.84524H11.0093ZM10.8254 3.56253L7.67 0.214209L6.71767 1.14555L9.87303 4.49387L10.8254 3.56253Z" fill="#8982FF"/>
<path d="M7.69123 0.672415C7.69123 0.30105 7.39571 0 7.03116 0C6.66662 0 6.37109 0.30105 6.37109 0.672415H7.69123ZM8.63097 4.15275L8.62912 4.82516H8.63097V4.15275ZM10.3473 4.82516C10.7118 4.82516 11.0073 4.52411 11.0073 4.15275C11.0073 3.78138 10.7118 3.48033 10.3473 3.48033V4.82516ZM6.37109 0.672415V2.51856H7.69123V0.672415H6.37109ZM6.37109 2.51856C6.37109 3.79045 7.38075 4.82158 8.62912 4.82516L8.63283 3.48033C8.11194 3.47883 7.69123 3.04904 7.69123 2.51856H6.37109ZM8.63097 4.82516H10.3473V3.48033H8.63097V4.82516Z" fill="#8982FF"/>
<path d="M6.91479 9.02901C7.27933 9.02901 7.57485 8.72795 7.57485 8.35659C7.57485 7.98522 7.27933 7.68417 6.91479 7.68417V9.02901ZM3.55069 7.68417C3.18615 7.68417 2.89062 7.98522 2.89062 8.35659C2.89062 8.72795 3.18615 9.02901 3.55069 9.02901V7.68417ZM6.91479 7.68417H3.55069V9.02901H6.91479V7.68417Z" fill="#8982FF"/>
<path d="M5.64141 6.64799C6.00596 6.64799 6.30148 6.34694 6.30148 5.97558C6.30148 5.60421 6.00596 5.30316 5.64141 5.30316V6.64799ZM3.55069 5.30316C3.18615 5.30316 2.89062 5.60421 2.89062 5.97558C2.89062 6.34694 3.18615 6.64799 3.55069 6.64799V5.30316ZM5.64141 5.30316H3.55069V6.64799H5.64141V5.30316Z" fill="#8982FF"/>
</svg>
