<svg width="10" height="5" viewBox="0 0 10 5" fill="none" xmlns="http://www.w3.org/2000/svg">
<path d="M8.93001 0.855268C9.12621 0.660958 9.12775 0.344379 8.93344 0.14817C8.73913 -0.048039 8.42255 -0.049579 8.22635 0.144732L8.93001 0.855268ZM4.53909 4.5L4.18726 4.85527C4.38212 5.04824 4.69606 5.04824 4.89092 4.85527L4.53909 4.5ZM0.85183 0.144732C0.655621 -0.049579 0.339042 -0.048039 0.144732 0.14817C-0.049579 0.344379 -0.048039 0.660958 0.14817 0.855268L0.85183 0.144732ZM8.22635 0.144732L4.18726 4.14473L4.89092 4.85527L8.93001 0.855268L8.22635 0.144732ZM4.89092 4.14473L0.85183 0.144732L0.14817 0.855268L4.18726 4.85527L4.89092 4.14473Z" fill="black"/>
</svg>
