<svg width="20" height="17" viewBox="0 0 20 17" fill="none" xmlns="http://www.w3.org/2000/svg">
<path d="M18.4481 16.6313C18.8031 16.9305 19.3788 16.9305 19.7338 16.6313C20.0888 16.3322 20.0888 15.8471 19.7338 15.5479L18.4481 16.6313ZM16.0975 12.4829C15.7425 12.1837 15.1669 12.1837 14.8119 12.4829C14.4569 12.7821 14.4569 13.2672 14.8118 13.5665L16.0975 12.4829ZM16.4181 7.68462C16.4181 11.0825 13.1498 13.8369 9.11814 13.8369V15.3692C14.154 15.3692 18.2362 11.9287 18.2362 7.68462H16.4181ZM9.11814 13.8369C5.08647 13.8369 1.81817 11.0825 1.81817 7.68462H0C0 11.9287 4.08233 15.3692 9.11814 15.3692V13.8369ZM1.81817 7.68462C1.81817 4.28679 5.08647 1.53232 9.11814 1.53232V0C4.08233 0 0 3.44052 0 7.68462H1.81817ZM9.11814 1.53232C13.1498 1.53232 16.4181 4.28679 16.4181 7.68462H18.2362C18.2362 3.44052 14.154 0 9.11814 0V1.53232ZM19.7338 15.5479L16.0975 12.4829L14.8118 13.5665L18.4481 16.6313L19.7338 15.5479Z" fill="#AAAAAA"/>
</svg>
