<svg width="18" height="17" viewBox="0 0 18 17" fill="none" xmlns="http://www.w3.org/2000/svg">
<path d="M14.1579 6.48575C14.4278 6.16171 14.384 5.68014 14.06 5.41014C13.7359 5.14014 13.2543 5.18396 12.9844 5.50801L14.1579 6.48575ZM4.69279 5.50478C4.42102 5.18223 3.93921 5.14106 3.61665 5.41284C3.2941 5.68461 3.25293 6.16642 3.52471 6.48897L4.69279 5.50478ZM13.5711 5.99688C12.9844 5.50801 12.9844 5.50791 12.9845 5.50783C12.9845 5.50782 12.9846 5.50776 12.9846 5.50774C12.9846 5.5077 12.9846 5.50771 12.9845 5.50777C12.9845 5.50788 12.9842 5.5082 12.9838 5.5087C12.983 5.50971 12.9814 5.51149 12.9793 5.514C12.975 5.51903 12.9683 5.52703 12.9591 5.53779C12.9407 5.55931 12.9127 5.59186 12.8758 5.63388C12.8022 5.71796 12.6935 5.83957 12.5564 5.98616C12.2815 6.28035 11.897 6.67027 11.4559 7.05782C11.0122 7.44777 10.5277 7.82072 10.0529 8.09245C9.56588 8.37117 9.15952 8.5024 8.8548 8.5024V10.0298C9.54625 10.0298 10.2275 9.7524 10.8116 9.41814C11.4079 9.07689 11.9779 8.63253 12.4642 8.20516C12.9532 7.77541 13.3743 7.34803 13.6722 7.02923C13.8217 6.86932 13.9414 6.73553 14.0244 6.64082C14.0659 6.59344 14.0984 6.55576 14.1209 6.5294C14.1322 6.51621 14.141 6.50585 14.1471 6.4985C14.1502 6.49484 14.1527 6.49193 14.1544 6.48979C14.1553 6.48872 14.156 6.48785 14.1566 6.48717C14.1569 6.48683 14.1571 6.48655 14.1573 6.48632C14.1574 6.48619 14.1576 6.48605 14.1577 6.48599C14.1578 6.48587 14.1579 6.48575 13.5711 5.99688ZM8.8548 8.5024C8.54985 8.5024 8.14144 8.37089 7.65095 8.09161C7.17295 7.81946 6.68445 7.44603 6.23681 7.0558C5.79188 6.66796 5.40349 6.27776 5.1256 5.98341C4.9871 5.83672 4.87717 5.71501 4.80261 5.63086C4.76535 5.58882 4.73699 5.55622 4.71839 5.53467C4.70909 5.52389 4.70224 5.51588 4.69793 5.51083C4.69578 5.5083 4.69426 5.50652 4.69341 5.5055C4.69297 5.50499 4.6927 5.50468 4.6926 5.50455C4.69255 5.50449 4.69254 5.50448 4.69257 5.50452C4.69259 5.50454 4.69264 5.50461 4.69265 5.50462C4.69271 5.5047 4.69279 5.50478 4.10875 5.99688C3.52471 6.48897 3.52481 6.48909 3.52491 6.48922C3.52496 6.48927 3.52508 6.48941 3.52518 6.48953C3.52538 6.48977 3.52562 6.49005 3.5259 6.49039C3.52647 6.49105 3.5272 6.49193 3.5281 6.49299C3.5299 6.49511 3.53238 6.49802 3.53549 6.50168C3.54173 6.509 3.55059 6.51935 3.56196 6.53252C3.58468 6.55885 3.61744 6.59649 3.6594 6.64384C3.74325 6.73847 3.86407 6.87218 4.01494 7.03198C4.31576 7.35061 4.74047 7.77773 5.23313 8.20718C5.72306 8.63427 6.29661 9.07815 6.89519 9.41897C7.48129 9.75268 8.164 10.0298 8.8548 10.0298V8.5024ZM1.52743 8.49998C1.52743 5.64719 2.03313 3.99019 3.05968 3.00756C4.09609 2.01549 5.85134 1.52743 8.84536 1.52743V0C5.77815 0 3.49257 0.47877 2.00348 1.90417C0.504501 3.33901 0 5.55014 0 8.49998H1.52743ZM8.84536 1.52743C11.8394 1.52743 13.5946 2.01549 14.6311 3.00756C15.6576 3.99019 16.1633 5.64719 16.1633 8.49998H17.6907C17.6907 5.55014 17.1862 3.33901 15.6872 1.90417C14.1982 0.47877 11.9125 0 8.84536 0V1.52743ZM16.1633 8.49998C16.1633 11.3523 15.6576 13.0093 14.6311 13.9921C13.5945 14.9843 11.8393 15.4726 8.84536 15.4726V17C11.9126 17 14.1982 16.5209 15.6872 15.0955C17.1862 13.6605 17.6907 11.4494 17.6907 8.49998H16.1633ZM8.84536 15.4726C5.8514 15.4726 4.09614 14.9843 3.0597 13.9921C2.03312 13.0093 1.52743 11.3523 1.52743 8.49998H0C0 11.4494 0.504515 13.6605 2.00345 15.0955C3.49253 16.5209 5.77808 17 8.84536 17V15.4726Z" fill="#1AADB6"/>
</svg>
